<?xml version="1.0" encoding="UTF-8"?>
<!DOCTYPE svg PUBLIC "-//W3C//DTD SVG 1.1//EN" "http://www.w3.org/Graphics/SVG/1.1/DTD/svg11.dtd">
<!-- Creator: CorelDRAW 2021 (64 Bit) -->
<svg xmlns="http://www.w3.org/2000/svg" xml:space="preserve" width="55.8137mm" height="55.8137mm" version="1.1" style="shape-rendering:geometricPrecision; text-rendering:geometricPrecision; image-rendering:optimizeQuality; fill-rule:evenodd; clip-rule:evenodd"
viewBox="0 0 935 935"
 xmlns:xlink="http://www.w3.org/1999/xlink"
 xmlns:xodm="http://www.corel.com/coreldraw/odm/2003">
 <defs>
  <style type="text/css">
   <![CDATA[
    .fil0 {fill:black}
    .fil1 {fill:#FBB22F;fill-rule:nonzero}
   ]]>
  </style>
 </defs>
 <g id="Camada_x0020_1">
  <metadata id="CorelCorpID_0Corel-Layer"/>
  <polygon class="fil0" points="-0,0 935,0 935,935 -0,935 "/>
  <g id="_2983586455696">
   <path class="fil1" d="M573.63 501.2c17.66,-23.28 26.99,-51.07 26.99,-80.36 0,-35.91 -14.09,-69.58 -39.67,-94.8 -25.57,-25.22 -59.47,-38.83 -95.39,-38.31 -34.81,0.49 -67.61,14.46 -92.34,39.33 -24.74,24.87 -38.54,57.74 -38.85,92.55 -0.27,29.84 9.11,58.13 27.14,81.81 29.27,38.43 45.39,85.51 45.39,132.56l0 51.48c0,22.84 18.58,41.42 41.42,41.42l38.52 0c22.84,0 41.41,-18.58 41.41,-41.42l0 -51.48c0,-47.57 15.58,-93.49 45.38,-132.78zm-198.54 -10.12c-15.71,-20.64 -23.89,-45.29 -23.65,-71.31 0.56,-62.51 51.87,-114.09 114.37,-114.97 31.35,-0.42 60.87,11.42 83.17,33.41 22.3,21.99 34.58,51.33 34.58,82.65 0,25.54 -8.13,49.76 -23.52,70.05 -31.4,41.41 -48.3,89.71 -49,139.88l-87.09 0c-0.72,-49.69 -18,-99.18 -48.85,-139.69zm48.88 188.6l0 -6.91 87.21 9.99 0 2.7c0,1.42 -0.14,2.81 -0.38,4.17l-86.84 -9.95zm0 -24.09l0 -7.75 87.21 0 0 17.74 -87.21 -9.99zm24.35 54.22c-9.17,0 -17.16,-5.09 -21.31,-12.6l73.47 8.42c-3.89,2.64 -8.58,4.18 -13.63,4.18l-38.53 0z"/>
   <path class="fil1" d="M383.1 433.68c-0.66,-4.47 -0.98,-9.06 -0.94,-13.64 0.05,-4.71 -3.74,-8.57 -8.46,-8.61 -4.68,-0.04 -8.57,3.75 -8.61,8.46 -0.05,5.47 0.33,10.96 1.13,16.31 0.63,4.24 4.27,7.28 8.43,7.28 0.42,0 0.84,-0.03 1.27,-0.09 4.66,-0.69 7.87,-5.04 7.18,-9.7z"/>
   <path class="fil1" d="M433.33 563.31c0.88,0 1.78,-0.14 2.67,-0.43 4.48,-1.47 6.91,-6.29 5.44,-10.77 -9.45,-28.76 -23.55,-55.56 -41.9,-79.65 -3.03,-3.98 -5.72,-8.22 -7.98,-12.61 -2.16,-4.18 -7.31,-5.82 -11.5,-3.66 -4.18,2.17 -5.82,7.32 -3.66,11.5 2.72,5.26 5.94,10.35 9.57,15.11 17.19,22.57 30.4,47.68 39.27,74.64 1.18,3.59 4.52,5.87 8.11,5.87z"/>
   <path class="fil1" d="M557.17 450.06c-4.33,-1.87 -9.35,0.13 -11.22,4.46 -2.7,6.28 -6.2,12.27 -10.4,17.8 -2.85,3.76 -2.11,9.11 1.64,11.96 1.54,1.17 3.36,1.73 5.15,1.73 2.58,0 5.13,-1.17 6.81,-3.38 5.03,-6.63 9.23,-13.82 12.48,-21.36 1.86,-4.33 -0.13,-9.34 -4.46,-11.21z"/>
   <path class="fil1" d="M467.5 335.5c47.05,0 85.34,38.28 85.34,85.34 0,2.67 -0.12,5.37 -0.37,8.01 -0.43,4.7 3.03,8.85 7.72,9.28 0.26,0.02 0.53,0.03 0.79,0.03 4.36,0 8.08,-3.32 8.48,-7.75 0.29,-3.16 0.44,-6.38 0.44,-9.58 0,-56.47 -45.94,-102.41 -102.41,-102.41 -4.71,0 -8.54,3.82 -8.54,8.54 0,4.71 3.82,8.53 8.54,8.53z"/>
   <path class="fil1" d="M467.5 272.99c4.72,0 8.53,-3.82 8.53,-8.53l0 -47.8c0,-4.71 -3.82,-8.53 -8.53,-8.53 -4.71,0 -8.54,3.82 -8.54,8.53l0 47.8c0,4.71 3.82,8.53 8.54,8.53z"/>
   <path class="fil1" d="M381.16 289.85c1.58,2.74 4.45,4.27 7.4,4.27 1.45,0 2.91,-0.37 4.26,-1.14 4.08,-2.36 5.48,-7.58 3.12,-11.66l-23.88 -41.38c-2.36,-4.08 -7.58,-5.48 -11.66,-3.12 -4.08,2.36 -5.48,7.58 -3.13,11.66l23.89 41.38z"/>
   <path class="fil1" d="M649.88 517.77l-41.37 -23.89c-4.08,-2.36 -9.3,-0.95 -11.66,3.13 -2.36,4.08 -0.96,9.3 3.12,11.66l41.38 23.89c1.34,0.77 2.81,1.15 4.26,1.15 2.95,0 5.82,-1.53 7.4,-4.27 2.36,-4.08 0.95,-9.3 -3.13,-11.66z"/>
   <path class="fil1" d="M285.11 326.88l41.38 23.89c1.34,0.78 2.8,1.15 4.26,1.15 2.95,0 5.82,-1.53 7.4,-4.27 2.36,-4.08 0.96,-9.31 -3.13,-11.66l-41.37 -23.88c-4.08,-2.36 -9.3,-0.96 -11.66,3.12 -2.36,4.08 -0.96,9.3 3.12,11.66z"/>
   <path class="fil1" d="M673.16 413.79l-47.79 0c-4.71,0 -8.53,3.82 -8.53,8.54 0,4.71 3.82,8.53 8.53,8.53l47.79 0c4.71,0 8.53,-3.82 8.53,-8.53 0,-4.72 -3.82,-8.54 -8.53,-8.54z"/>
   <path class="fil1" d="M318.16 422.33c0,-4.72 -3.82,-8.54 -8.53,-8.54l-47.79 0c-4.72,0 -8.54,3.82 -8.54,8.54 0,4.71 3.82,8.53 8.54,8.53l47.79 0c4.72,0 8.53,-3.82 8.53,-8.53z"/>
   <path class="fil1" d="M604.24 351.92c1.45,0 2.92,-0.37 4.26,-1.15l41.37 -23.89c4.08,-2.36 5.48,-7.57 3.13,-11.66 -2.36,-4.08 -7.58,-5.48 -11.66,-3.12l-41.38 23.88c-4.08,2.36 -5.48,7.58 -3.12,11.66 1.58,2.74 4.45,4.27 7.4,4.27z"/>
   <path class="fil1" d="M326.49 493.88l-41.38 23.89c-4.08,2.36 -5.48,7.58 -3.12,11.66 1.58,2.74 4.44,4.27 7.39,4.27 1.45,0 2.92,-0.37 4.26,-1.15l41.37 -23.89c4.08,-2.36 5.48,-7.58 3.13,-11.66 -2.36,-4.08 -7.58,-5.48 -11.66,-3.13z"/>
   <path class="fil1" d="M542.18 292.98c1.35,0.78 2.81,1.14 4.26,1.14 2.95,0 5.82,-1.53 7.4,-4.27l23.88 -41.38c2.36,-4.08 0.96,-9.3 -3.12,-11.66 -4.08,-2.36 -9.3,-0.95 -11.66,3.12l-23.89 41.38c-2.36,4.08 -0.96,9.3 3.12,11.66z"/>
  </g>
 </g>
</svg>
