<?xml version="1.0" encoding="UTF-8"?>
<!DOCTYPE svg PUBLIC "-//W3C//DTD SVG 1.1//EN" "http://www.w3.org/Graphics/SVG/1.1/DTD/svg11.dtd">
<!-- Creator: CorelDRAW 2021 (64 Bit) -->
<svg xmlns="http://www.w3.org/2000/svg" xml:space="preserve" width="146.692mm" height="86.1052mm" version="1.1" style="shape-rendering:geometricPrecision; text-rendering:geometricPrecision; image-rendering:optimizeQuality; fill-rule:evenodd; clip-rule:evenodd"
viewBox="0 0 4621.17 2712.54"
 xmlns:xlink="http://www.w3.org/1999/xlink"
 xmlns:xodm="http://www.corel.com/coreldraw/odm/2003">
 <defs>
  <style type="text/css">
   <![CDATA[
    .fil0 {fill:black;fill-rule:nonzero}
    .fil1 {fill:#FBB22F;fill-rule:nonzero}
   ]]>
  </style>
 </defs>
 <g id="Camada_x0020_1">
  <metadata id="CorelCorpID_0Corel-Layer"/>
  <path class="fil0" d="M611.31 1014.44l306.83 0 0 1229.65c0,70.27 -11.71,133.9 -35.13,190.89 -23.42,57 -55.44,106.18 -96.03,147.56 -40.6,41.38 -88.61,73.39 -144.05,96.03 -55.43,22.64 -115.16,33.97 -179.18,33.97 -157.71,0 -274.43,-43.33 -350.16,-130 -75.73,-86.66 -113.6,-204.16 -113.6,-352.5l285.75 0c0,65.58 12.11,117.5 36.31,155.76 24.2,38.25 65.97,57.38 125.3,57.38 60.9,0 103.45,-18.74 127.66,-56.22 24.2,-37.47 36.3,-89 36.3,-154.58l0 -1217.94zm1023.55 927.51c185.81,0 278.72,-117.11 278.72,-351.33 0,-232.66 -92.91,-348.99 -278.72,-348.99 -185.82,0 -278.73,116.33 -278.73,348.99 0,234.22 92.91,351.33 278.73,351.33zm0 255.3c-93.69,0 -177.23,-14.83 -250.62,-44.5 -73.39,-29.67 -135.45,-71.04 -186.21,-124.14 -50.75,-53.09 -89.39,-117.11 -115.94,-192.06 -26.55,-74.95 -39.82,-156.93 -39.82,-245.93 0,-90.56 13.66,-173.32 40.98,-248.28 27.33,-74.95 66.75,-138.97 118.29,-192.06 51.53,-53.09 113.6,-94.08 186.2,-122.96 72.61,-28.88 154.98,-43.33 247.11,-43.33 90.56,0 171.76,14.44 243.58,43.33 71.83,28.89 133.12,69.49 183.86,121.8 50.74,52.3 89.78,115.94 117.11,190.89 27.32,74.94 40.98,158.48 40.98,250.61 0,92.13 -13.66,175.27 -40.98,249.44 -27.33,74.17 -66.37,137.8 -117.11,190.89 -50.75,53.09 -112.42,94.08 -185.04,122.96 -72.61,28.89 -153.41,43.33 -242.41,43.33zm1395.95 -594.92c-15.61,15.62 -38.25,28.11 -67.92,37.47 -29.67,9.37 -72.61,19.52 -128.82,30.45 -87.44,17.18 -147.56,39.03 -180.35,65.58 -32.79,26.54 -49.19,64.8 -49.19,114.76 0,85.88 49.19,128.82 147.56,128.82 39.04,0 75.34,-6.63 108.91,-19.91 33.57,-13.27 62.46,-31.23 86.66,-53.87 24.2,-22.64 43.72,-49.19 58.56,-79.63 14.83,-30.45 22.25,-62.85 22.25,-97.2l2.34 -126.48zm21.08 564.47c-9.37,-29.67 -15.62,-64.02 -18.74,-103.06 -35.91,40.6 -83.54,73 -142.88,97.21 -59.34,24.2 -128.03,36.3 -206.11,36.3 -132.72,0 -229.92,-29.28 -291.6,-87.83 -61.68,-58.55 -92.52,-134.68 -92.52,-228.37 0,-82.76 13.27,-148.72 39.82,-197.92 26.54,-49.19 63.24,-87.83 110.09,-115.94 46.84,-28.11 102.67,-48.8 167.47,-62.07 64.8,-13.27 135.45,-25.38 211.97,-36.31 76.51,-10.93 128.04,-25.37 154.58,-43.33 26.55,-17.96 39.82,-47.24 39.82,-87.84 0,-37.47 -17.56,-66.75 -52.7,-87.83 -35.13,-21.08 -82.37,-31.62 -141.71,-31.62 -70.27,0 -120.62,15.61 -151.07,46.84 -30.45,31.23 -49.58,72.61 -57.38,124.14l-283.41 0c1.56,-59.34 11.32,-113.98 29.28,-163.95 17.96,-49.97 46.84,-92.91 86.66,-128.82 39.82,-35.91 91.74,-63.63 155.76,-83.15 64.02,-19.52 142.09,-29.27 234.22,-29.27 90.56,0 167.46,10.15 230.7,30.45 63.24,20.3 113.99,49.58 152.25,87.84 38.26,38.25 65.97,85.88 83.15,142.87 17.18,57 25.76,121.4 25.76,193.23l0 728.43 -283.4 0zm983.72 -224.85c185.81,0 278.72,-117.11 278.72,-351.33 0,-232.66 -92.91,-348.99 -278.72,-348.99 -185.82,0 -278.73,116.33 -278.73,348.99 0,234.22 92.91,351.33 278.73,351.33zm0 255.3c-93.69,0 -177.22,-14.83 -250.62,-44.5 -73.39,-29.67 -135.45,-71.04 -186.2,-124.14 -50.75,-53.09 -89.4,-117.11 -115.94,-192.06 -26.55,-74.95 -39.82,-156.93 -39.82,-245.93 0,-90.56 13.67,-173.32 40.98,-248.28 27.33,-74.95 66.75,-138.97 118.29,-192.06 51.53,-53.09 113.6,-94.08 186.2,-122.96 72.61,-28.88 154.98,-43.33 247.11,-43.33 90.56,0 171.76,14.44 243.59,43.33 71.83,28.89 133.11,69.49 183.86,121.8 50.74,52.3 89.78,115.94 117.11,190.89 27.32,74.94 40.98,158.48 40.98,250.61 0,92.13 -13.67,175.27 -40.98,249.44 -27.33,74.17 -66.37,137.8 -117.11,190.89 -50.75,53.09 -112.43,94.08 -185.04,122.96 -72.6,28.89 -153.41,43.33 -242.41,43.33z"/>
  <g id="_2983586506768">
   <path class="fil1" d="M939.75 483.26c29.11,-38.39 44.51,-84.2 44.51,-132.52 0,-59.22 -23.23,-114.73 -65.41,-156.32 -42.17,-41.58 -98.06,-64.04 -157.29,-63.17 -57.4,0.81 -111.48,23.84 -152.27,64.85 -40.8,41.01 -63.55,95.21 -64.07,152.62 -0.45,49.21 15.02,95.85 44.76,134.9 48.26,63.37 74.84,141 74.84,218.58l0 84.89c0,37.66 30.64,68.29 68.29,68.29l63.52 0c37.66,0 68.29,-30.64 68.29,-68.29l0 -84.88c0,-78.44 25.69,-154.16 74.82,-218.95zm-327.38 -16.69c-25.91,-34.03 -39.4,-74.69 -39,-117.59 0.93,-103.08 85.53,-188.13 188.59,-189.59 51.7,-0.69 100.38,18.84 137.13,55.08 36.76,36.25 57.02,84.64 57.02,136.28 0,42.11 -13.41,82.05 -38.78,115.5 -51.77,68.28 -79.65,147.92 -80.8,230.66l-143.6 0c-1.18,-81.94 -29.67,-163.54 -80.56,-230.35zm80.59 310.99l0 -11.39 143.81 16.48 0 4.45c0,2.34 -0.24,4.64 -0.62,6.87l-143.19 -16.41zm0 -39.72l0 -12.78 143.81 0 0 29.25 -143.81 -16.47zm40.15 89.4c-15.11,0 -28.3,-8.4 -35.14,-20.78l121.14 13.88c-6.41,4.35 -14.15,6.9 -22.47,6.9l-63.53 0z"/>
   <path class="fil1" d="M625.57 371.92c-1.09,-7.37 -1.62,-14.94 -1.55,-22.48 0.08,-7.77 -6.17,-14.13 -13.94,-14.2 -7.71,-0.06 -14.13,6.17 -14.2,13.94 -0.08,9.03 0.54,18.07 1.86,26.89 1.05,6.99 7.05,12 13.9,12 0.7,0 1.39,-0.06 2.1,-0.16 7.68,-1.14 12.98,-8.31 11.84,-15.99z"/>
   <path class="fil1" d="M708.39 585.67c1.46,0 2.93,-0.23 4.4,-0.71 7.38,-2.43 11.4,-10.38 8.97,-17.76 -15.59,-47.43 -38.84,-91.62 -69.09,-131.33 -5,-6.56 -9.43,-13.55 -13.16,-20.79 -3.57,-6.9 -12.06,-9.6 -18.97,-6.04 -6.9,3.57 -9.6,12.07 -6.04,18.96 4.49,8.68 9.79,17.06 15.78,24.92 28.35,37.21 50.13,78.62 64.75,123.07 1.94,5.92 7.45,9.67 13.37,9.67z"/>
   <path class="fil1" d="M912.6 398.94c-7.14,-3.08 -15.42,0.22 -18.5,7.36 -4.45,10.35 -10.23,20.23 -17.14,29.35 -4.7,6.19 -3.48,15.02 2.7,19.72 2.55,1.92 5.54,2.86 8.5,2.86 4.26,0 8.46,-1.92 11.22,-5.57 8.29,-10.93 15.22,-22.78 20.58,-35.23 3.07,-7.14 -0.22,-15.41 -7.36,-18.49z"/>
   <path class="fil1" d="M764.73 210.04c77.59,0 140.72,63.12 140.72,140.72 0,4.41 -0.2,8.86 -0.6,13.21 -0.71,7.74 4.99,14.59 12.74,15.3 0.43,0.03 0.87,0.05 1.3,0.05 7.2,0 13.32,-5.48 13.99,-12.78 0.48,-5.22 0.72,-10.52 0.72,-15.79 0,-93.11 -75.75,-168.86 -168.86,-168.86 -7.77,0 -14.07,6.3 -14.07,14.07 0,7.77 6.3,14.07 14.07,14.07z"/>
   <path class="fil1" d="M764.73 106.96c7.78,0 14.07,-6.3 14.07,-14.07l0 -78.81c0,-7.77 -6.29,-14.07 -14.07,-14.07 -7.77,0 -14.07,6.3 -14.07,14.07l0 78.81c0,7.77 6.3,14.07 14.07,14.07z"/>
   <path class="fil1" d="M622.36 134.76c2.61,4.52 7.34,7.04 12.2,7.04 2.38,0 4.8,-0.6 7.02,-1.89 6.74,-3.88 9.04,-12.49 5.15,-19.22l-39.38 -68.23c-3.89,-6.72 -12.49,-9.03 -19.22,-5.15 -6.74,3.88 -9.04,12.5 -5.16,19.22l39.39 68.23z"/>
   <path class="fil1" d="M1065.47 510.58l-68.22 -39.39c-6.74,-3.89 -15.34,-1.58 -19.22,5.16 -3.88,6.72 -1.58,15.34 5.15,19.22l68.23 39.39c2.21,1.27 4.64,1.89 7.02,1.89 4.87,0 9.6,-2.53 12.2,-7.04 3.89,-6.73 1.58,-15.34 -5.16,-19.22z"/>
   <path class="fil1" d="M463.99 195.83l68.23 39.39c2.21,1.28 4.62,1.89 7.02,1.89 4.87,0 9.6,-2.53 12.2,-7.04 3.88,-6.73 1.58,-15.34 -5.16,-19.23l-68.22 -39.38c-6.74,-3.89 -15.34,-1.58 -19.22,5.15 -3.89,6.73 -1.58,15.34 5.15,19.22z"/>
   <path class="fil1" d="M1103.86 339.14l-78.81 0c-7.77,0 -14.07,6.29 -14.07,14.07 0,7.77 6.3,14.07 14.07,14.07l78.81 0c7.77,0 14.07,-6.3 14.07,-14.07 0,-7.78 -6.3,-14.07 -14.07,-14.07z"/>
   <path class="fil1" d="M518.48 353.21c0,-7.78 -6.3,-14.07 -14.07,-14.07l-78.8 0c-7.78,0 -14.07,6.29 -14.07,14.07 0,7.77 6.29,14.07 14.07,14.07l78.8 0c7.78,0 14.07,-6.3 14.07,-14.07z"/>
   <path class="fil1" d="M990.22 237.1c2.39,0 4.81,-0.6 7.03,-1.89l68.22 -39.39c6.74,-3.88 9.04,-12.49 5.16,-19.22 -3.88,-6.74 -12.5,-9.04 -19.22,-5.15l-68.23 39.38c-6.73,3.88 -9.03,12.5 -5.15,19.23 2.6,4.51 7.34,7.04 12.19,7.04z"/>
   <path class="fil1" d="M532.22 471.2l-68.23 39.39c-6.74,3.88 -9.04,12.49 -5.15,19.22 2.6,4.52 7.33,7.04 12.19,7.04 2.39,0 4.81,-0.61 7.03,-1.89l68.22 -39.39c6.73,-3.88 9.04,-12.5 5.16,-19.22 -3.88,-6.74 -12.5,-9.04 -19.22,-5.16z"/>
   <path class="fil1" d="M887.87 139.91c2.22,1.28 4.64,1.89 7.03,1.89 4.86,0 9.59,-2.53 12.2,-7.04l39.38 -68.23c3.88,-6.72 1.59,-15.34 -5.15,-19.22 -6.73,-3.88 -15.34,-1.58 -19.22,5.15l-39.39 68.23c-3.88,6.74 -1.58,15.34 5.15,19.22z"/>
  </g>
  <g id="_2983586510176">
   <path class="fil1" d="M1292.22 2515.99c0,3.61 0,7.03 0,10.25 0,3.22 0.13,6.25 0.39,9.09 0.51,5.16 1.35,9.34 2.51,12.57 1.16,3.22 3.22,5.67 6.19,7.35 2.96,1.68 6.9,2.77 11.79,3.29 4.9,0.52 11.21,0.52 18.95,0l0 38.67c-6.19,1.03 -12.31,1.81 -18.37,2.32 -6.06,0.52 -12.44,0.77 -19.14,0.77 -11.34,0 -20.81,-0.9 -28.42,-2.71 -7.6,-1.81 -13.86,-4.58 -18.76,-8.32 -4.9,-3.74 -8.51,-8.44 -10.83,-14.11 -2.32,-5.67 -3.74,-12.24 -4.25,-19.72 -0.52,-5.16 -0.77,-10.18 -0.77,-15.08 0,-4.9 0,-10.31 0,-16.24l0 -94.73 -31.32 0 0 -38.66 31.32 0 0 -51.82 60.71 0 0 51.82 43.69 0 0 38.66 -43.69 0 0 86.61zm239.1 -27.45c0,5.42 -0.39,11.86 -1.16,19.34l-144.61 0c0.77,9.79 2.45,17.98 5.03,24.55 2.58,6.57 5.74,11.79 9.47,15.66 3.74,3.87 8.06,6.64 12.95,8.31 4.9,1.68 10.18,2.51 15.86,2.51 10.83,0 19.59,-2.71 26.29,-8.12 6.7,-5.41 10.96,-13.02 12.76,-22.82l59.94 0c-5.67,23.98 -17.47,42.08 -35.38,54.33 -17.92,12.25 -39.51,18.37 -64.77,18.37 -14.44,0 -27.91,-2.19 -40.41,-6.57 -12.5,-4.38 -23.4,-11.09 -32.68,-20.11 -9.28,-9.02 -16.56,-20.29 -21.84,-33.83 -5.29,-13.53 -7.93,-29.32 -7.93,-47.36 0,-15.47 2.51,-29.84 7.54,-43.11 5.03,-13.28 12.18,-24.81 21.46,-34.61 9.28,-9.79 20.5,-17.46 33.64,-23 13.14,-5.54 27.84,-8.31 44.08,-8.31 16.5,0 30.93,2.9 43.31,8.7 12.37,5.8 22.75,13.53 31.13,23.2 8.37,9.67 14.69,20.82 18.94,33.45 4.25,12.63 6.38,25.78 6.38,39.44zm-102.47 -63.03c-10.83,0 -19.85,3.48 -27.07,10.44 -7.21,6.96 -12.11,18.18 -14.69,33.64l81.2 0c-3.61,-29.38 -16.75,-44.08 -39.44,-44.08zm203.91 -41.76c14.44,0 27.39,2.06 38.86,6.19 11.47,4.13 21.33,9.86 29.58,17.2 8.25,7.35 14.75,15.98 19.52,25.91 4.77,9.92 7.54,20.69 8.31,32.28l-59.16 0c-2.06,-14.17 -6.51,-24.36 -13.34,-30.54 -6.82,-6.19 -15.27,-9.28 -25.32,-9.28 -12.89,0 -23.08,5.29 -30.55,15.86 -7.47,10.57 -11.21,26.81 -11.21,48.72 0,24.23 3.8,41.76 11.4,52.59 7.61,10.83 17.73,16.24 30.36,16.24 9.28,0 17.34,-3.09 24.16,-9.28 6.83,-6.19 11.41,-15.34 13.73,-27.46l59.93 0c-4.12,25.78 -15.34,45.31 -33.64,58.58 -18.3,13.28 -40.86,19.92 -67.67,19.92 -14.18,0 -27.46,-2.26 -39.83,-6.77 -12.37,-4.51 -23.01,-11.28 -31.9,-20.3 -8.9,-9.02 -15.92,-20.17 -21.07,-33.45 -5.15,-13.28 -7.73,-28.67 -7.73,-46.2 0,-17.79 2.77,-33.52 8.31,-47.17 5.54,-13.67 13.08,-25.14 22.62,-34.42 9.54,-9.28 20.69,-16.37 33.45,-21.26 12.76,-4.9 26.48,-7.35 41.18,-7.35zm302.51 56.84c0.77,5.16 1.29,10.76 1.55,16.82 0.26,6.06 0.38,13.22 0.38,21.46l0 116.39 -60.71 0 0 -107.11c0,-3.87 0,-8.31 0,-13.34 0,-5.02 -0.26,-10.12 -0.77,-15.28 -0.77,-10.56 -4.12,-18.88 -10.06,-24.93 -5.93,-6.06 -14.82,-9.09 -26.68,-9.09 -11.86,0.26 -21.78,6.12 -29.78,17.59 -7.99,11.47 -11.99,30.35 -11.99,56.65l0 95.51 -60.7 0 0 -286.14 60.7 0 0 112.52 17.02 -24.74c6.96,-4.64 14.24,-7.99 21.85,-10.06 7.61,-2.06 16.3,-3.09 26.1,-3.09 21.92,0 38.99,4.96 51.24,14.89 12.25,9.92 19.53,23.91 21.85,41.95zm683.5 154.67l-60.71 0 0 -30.93 -15.47 22.81c-5.93,4.38 -13.6,7.73 -23,10.06 -9.41,2.32 -19.4,3.48 -29.97,3.48 -14.18,0 -26.93,-2.58 -38.28,-7.73 -11.34,-5.16 -20.95,-12.38 -28.81,-21.66 -7.86,-9.27 -13.85,-20.3 -17.98,-33.06 -4.12,-12.76 -6.19,-26.74 -6.19,-41.95 0,-18.56 2.64,-34.8 7.93,-48.72 5.28,-13.92 12.37,-25.65 21.26,-35.19 8.9,-9.54 19.34,-16.69 31.33,-21.46 11.99,-4.77 24.55,-7.15 37.7,-7.15 8.51,0 17.34,0.97 26.49,2.9 9.15,1.93 16.3,4.57 21.46,7.93l13.54 21.65 0 -105.17 60.71 0 0 284.2zm-109.81 -36.34c6.96,0 13.4,-1.16 19.33,-3.48 5.93,-2.32 11.09,-5.99 15.47,-11.02 4.38,-5.03 7.86,-11.6 10.44,-19.72 2.58,-8.12 3.87,-18.1 3.87,-29.97l0 -9.67c0,-11.09 -1.42,-20.43 -4.26,-28.03 -2.84,-7.61 -6.45,-13.73 -10.83,-18.37 -4.38,-4.64 -9.41,-7.99 -15.08,-10.06 -5.67,-2.06 -11.34,-3.09 -17.01,-3.09 -14.69,0 -26.75,5.54 -36.16,16.63 -9.4,11.09 -14.11,27.97 -14.11,50.66 0,20.36 4.45,36.47 13.34,48.33 8.9,11.86 20.56,17.79 35,17.79zm324.55 -70.38c0,5.42 -0.39,11.86 -1.16,19.34l-144.61 0c0.77,9.79 2.45,17.98 5.03,24.55 2.58,6.57 5.74,11.79 9.47,15.66 3.74,3.87 8.06,6.64 12.95,8.31 4.9,1.68 10.18,2.51 15.86,2.51 10.83,0 19.59,-2.71 26.29,-8.12 6.7,-5.41 10.96,-13.02 12.76,-22.82l59.94 0c-5.67,23.98 -17.47,42.08 -35.38,54.33 -17.92,12.25 -39.51,18.37 -64.77,18.37 -14.44,0 -27.91,-2.19 -40.41,-6.57 -12.51,-4.38 -23.4,-11.09 -32.68,-20.11 -9.28,-9.02 -16.56,-20.29 -21.84,-33.83 -5.29,-13.53 -7.93,-29.32 -7.93,-47.36 0,-15.47 2.51,-29.84 7.54,-43.11 5.03,-13.28 12.18,-24.81 21.46,-34.61 9.28,-9.79 20.5,-17.46 33.64,-23 13.14,-5.54 27.84,-8.31 44.08,-8.31 16.5,0 30.93,2.9 43.31,8.7 12.37,5.8 22.75,13.53 31.13,23.2 8.37,9.67 14.69,20.82 18.94,33.45 4.25,12.63 6.38,25.78 6.38,39.44zm-102.47 -63.03c-10.83,0 -19.85,3.48 -27.07,10.44 -7.21,6.96 -12.11,18.18 -14.69,33.64l81.2 0c-3.61,-29.38 -16.75,-44.08 -39.44,-44.08zm235.61 169.75l-66.5 0 -80.82 -206.09 67.28 0 47.56 159.31 47.18 -159.31 65.73 0 -80.43 206.09zm635.9 -211.51c14.18,0 26.94,2.58 38.29,7.73 11.34,5.16 20.94,12.3 28.81,21.46 7.86,9.15 13.86,20.11 17.98,32.87 4.12,12.76 6.19,26.74 6.19,41.95 0,18.56 -2.64,34.86 -7.93,48.91 -5.29,14.05 -12.38,25.85 -21.27,35.38 -8.89,9.54 -19.34,16.69 -31.32,21.46 -11.99,4.77 -24.56,7.15 -37.71,7.15 -8.5,0 -17.33,-0.97 -26.48,-2.9 -9.15,-1.93 -16.31,-4.58 -21.46,-7.93l-13.53 -21.66 0 27.07 -60.7 0 0 -284.2 60.7 0 0 109.04 15.47 -22.81c5.93,-4.39 13.6,-7.73 23.01,-10.06 9.41,-2.32 19.39,-3.48 29.96,-3.48zm-21.26 175.16c14.69,0 26.74,-5.54 36.15,-16.63 9.41,-11.09 14.11,-27.97 14.11,-50.65 0,-20.37 -4.45,-36.47 -13.34,-48.33 -8.89,-11.86 -20.56,-17.79 -34.99,-17.79 -6.96,0 -13.41,1.16 -19.34,3.48 -5.93,2.32 -11.15,5.99 -15.66,11.02 -4.51,5.03 -7.99,11.6 -10.44,19.72 -2.45,8.12 -3.67,18.11 -3.67,29.97l0 9.28c0,11.09 1.35,20.42 4.06,28.03 2.71,7.6 6.32,13.79 10.83,18.56 4.51,4.77 9.6,8.18 15.28,10.25 5.67,2.06 11.34,3.09 17.01,3.09zm234.07 -175.16c3.35,0 6.18,0.13 8.5,0.39 2.32,0.26 4.64,0.65 6.96,1.16l0 49.11c-11.86,-0.77 -22.1,-0.06 -30.74,2.13 -8.64,2.19 -15.79,6.25 -21.46,12.18 -5.67,5.93 -9.8,13.79 -12.37,23.58 -2.58,9.8 -3.87,22.05 -3.87,36.74l0 86.23 -60.7 0 0 -206.09 60.7 0 0 39.44 15.47 -28.61c5.16,-5.42 11.21,-9.48 18.18,-12.18 6.96,-2.71 13.4,-4.06 19.34,-4.06zm131.21 181.35l-9.27 22.04c-7.48,4.64 -15.47,8.06 -23.98,10.25 -8.51,2.19 -17.53,3.29 -27.06,3.29 -8.76,0 -17.14,-1.29 -25.14,-3.87 -7.99,-2.58 -15.02,-6.45 -21.08,-11.6 -6.05,-5.15 -10.89,-11.47 -14.5,-18.94 -3.61,-7.48 -5.41,-16.11 -5.41,-25.91 0,-22.69 9.6,-40.21 28.8,-52.59 19.21,-12.37 47.11,-18.56 83.72,-18.56l13.15 0 0 -3.48c0,-2.84 0,-5.61 0,-8.32 0,-2.7 -0.26,-5.86 -0.77,-9.47 -0.52,-6.19 -3.16,-11.47 -7.93,-15.86 -4.77,-4.38 -11.67,-6.57 -20.69,-6.57 -9.54,0 -16.89,2.77 -22.04,8.31 -5.15,5.54 -8.12,13.47 -8.89,23.78l-58 0c0.26,-11.85 2.84,-22.36 7.73,-31.51 4.89,-9.15 11.47,-16.89 19.59,-23.2 8.12,-6.31 17.72,-11.08 28.68,-14.3 10.95,-3.22 22.81,-4.84 35.44,-4.84 15.28,0 28.22,1.61 38.92,4.84 10.76,3.22 19.46,7.6 26.17,13.15 6.77,5.54 11.79,12.18 15.15,19.91 3.35,7.73 5.41,16.24 6.18,25.52 0.77,9.54 1.16,20.62 1.16,33.25l0 62.64c0,7.73 0.26,15.47 0.77,23.2 0.52,7.73 1.55,17.4 3.09,29l-59.55 0 -4.25 -30.16zm-36.34 -6.19c9.02,0 17.21,-3.22 24.56,-9.67 7.35,-6.45 11.02,-16.11 11.02,-29l0 -15.07c-18.82,-1.55 -34.1,0.06 -45.83,4.83 -11.73,4.76 -17.59,13.21 -17.59,25.32 0,7.73 2.58,13.6 7.73,17.59 5.15,4 11.85,5.99 20.1,5.99zm315.66 -118.32c0.77,5.16 1.29,10.76 1.55,16.82 0.26,6.06 0.39,13.22 0.39,21.46l0 116.39 -60.71 0 0 -107.11c0,-3.87 0,-8.31 0,-13.34 0,-5.02 -0.26,-10.12 -0.77,-15.28 -0.77,-10.56 -4.12,-18.88 -10.06,-24.93 -5.93,-6.06 -14.82,-9.09 -26.68,-9.09 -11.86,0 -21.78,5.8 -29.78,17.4 -7.99,11.6 -11.99,30.54 -11.99,56.84l0 95.51 -60.7 0 0 -206.09 60.7 0 0 32.48 17.02 -24.74c6.96,-4.64 14.24,-7.99 21.85,-10.06 7.61,-2.06 16.3,-3.09 26.1,-3.09 21.92,0 38.99,4.96 51.24,14.89 12.25,9.92 19.53,23.91 21.85,41.95zm227.89 154.67l-60.71 0 0 -30.93 -15.47 22.81c-5.93,4.38 -13.6,7.73 -23,10.06 -9.41,2.32 -19.4,3.48 -29.97,3.48 -14.18,0 -26.93,-2.58 -38.28,-7.73 -11.34,-5.16 -20.95,-12.38 -28.81,-21.66 -7.86,-9.27 -13.85,-20.3 -17.98,-33.06 -4.12,-12.76 -6.19,-26.74 -6.19,-41.95 0,-18.56 2.64,-34.8 7.93,-48.72 5.29,-13.92 12.37,-25.65 21.26,-35.19 8.89,-9.54 19.34,-16.69 31.32,-21.46 11.99,-4.77 24.55,-7.15 37.7,-7.15 8.51,0 17.34,0.97 26.49,2.9 9.15,1.93 16.3,4.57 21.46,7.93l13.53 21.65 0 -105.17 60.71 0 0 284.2zm-109.81 -36.34c6.96,0 13.41,-1.16 19.33,-3.48 5.93,-2.32 11.09,-5.99 15.47,-11.02 4.39,-5.03 7.86,-11.6 10.44,-19.72 2.58,-8.12 3.87,-18.1 3.87,-29.97l0 -9.67c0,-11.09 -1.42,-20.43 -4.25,-28.03 -2.84,-7.61 -6.45,-13.73 -10.83,-18.37 -4.38,-4.64 -9.41,-7.99 -15.08,-10.06 -5.66,-2.06 -11.34,-3.09 -17.01,-3.09 -14.7,0 -26.75,5.54 -36.16,16.63 -9.4,11.09 -14.11,27.97 -14.11,50.66 0,20.36 4.45,36.47 13.34,48.33 8.89,11.86 20.56,17.79 35,17.79z"/>
   <path class="fil1" d="M2305.24 2561.62l-31.7 -29.39c11.6,-17.4 19.72,-38.28 24.75,-61.48l-48.33 -15.07c-3.09,15.85 -7.73,30.16 -13.53,42.14l-49.49 -46.01c36.74,-20.11 52.97,-40.6 52.97,-68.44 0,-38.28 -30.93,-62.25 -77.72,-62.25 -51.04,0 -84.3,27.06 -84.3,66.51 0,19.33 8.12,36.73 27.85,57.23 -41.38,23.2 -59.55,46.78 -59.55,80.81 0,43.31 43.69,74.24 103.24,74.24 34.8,0 65.74,-10.83 90.48,-30.16l32.49 30.16 32.86 -38.28zm-143.07 -199.52c17.4,0 26.68,9.28 26.68,22.43 0,12.37 -8.51,22.42 -35.18,36.73 -16.63,-16.24 -20.88,-23.97 -20.88,-34.41 0,-14.31 10.83,-24.75 29.39,-24.75zm-8.51 190.63c-29.78,0 -48.33,-13.92 -48.33,-33.64 0,-16.62 8.89,-29 33.64,-43.31l65.35 61.1c-14.7,10.44 -32.1,15.86 -50.65,15.86zm1239.41 8.89l-31.7 -29.39c11.6,-17.4 19.72,-38.28 24.74,-61.48l-48.33 -15.07c-3.09,15.85 -7.73,30.16 -13.54,42.14l-49.49 -46.01c36.74,-20.11 52.97,-40.6 52.97,-68.44 0,-38.28 -30.93,-62.25 -77.72,-62.25 -51.04,0 -84.3,27.06 -84.3,66.51 0,19.33 8.12,36.73 27.85,57.23 -41.38,23.2 -59.55,46.78 -59.55,80.81 0,43.31 43.69,74.24 103.24,74.24 34.8,0 65.74,-10.83 90.48,-30.16l32.49 30.16 32.86 -38.28zm-143.07 -199.52c17.4,0 26.68,9.28 26.68,22.43 0,12.37 -8.51,22.42 -35.19,36.73 -16.63,-16.24 -20.88,-23.97 -20.88,-34.41 0,-14.31 10.83,-24.75 29.39,-24.75zm-8.51 190.63c-29.78,0 -48.33,-13.92 -48.33,-33.64 0,-16.62 8.89,-29 33.64,-43.31l65.35 61.1c-14.7,10.44 -32.1,15.86 -50.66,15.86z"/>
  </g>
 </g>
</svg>
