<?xml version="1.0" encoding="UTF-8"?>
<!DOCTYPE svg PUBLIC "-//W3C//DTD SVG 1.1//EN" "http://www.w3.org/Graphics/SVG/1.1/DTD/svg11.dtd">
<!-- Creator: CorelDRAW 2021 (64 Bit) -->
<svg xmlns="http://www.w3.org/2000/svg" xml:space="preserve" width="146.692mm" height="86.105mm" version="1.1" style="shape-rendering:geometricPrecision; text-rendering:geometricPrecision; image-rendering:optimizeQuality; fill-rule:evenodd; clip-rule:evenodd"
viewBox="0 0 21319.33 12514.01"
 xmlns:xlink="http://www.w3.org/1999/xlink"
 xmlns:xodm="http://www.corel.com/coreldraw/odm/2003">
 <defs>
  <style type="text/css">
   <![CDATA[
    .fil0 {fill:#FBB22F;fill-rule:nonzero}
   ]]>
  </style>
 </defs>
 <g id="Camada_x0020_1">
  <metadata id="CorelCorpID_0Corel-Layer"/>
  <path class="fil0" d="M2820.26 4679.98l1415.51 0 0 5672.91c0,324.17 -54.02,617.71 -162.05,880.65 -108.06,262.95 -255.74,489.85 -443.05,680.75 -187.29,190.9 -408.8,338.6 -664.54,443.02 -255.72,104.45 -531.27,156.7 -826.62,156.7 -727.59,0 -1266.05,-199.91 -1615.43,-599.72 -349.38,-399.81 -524.08,-941.87 -524.08,-1626.22l1318.3 0c0,302.56 55.84,542.07 167.48,718.58 111.66,176.46 304.34,264.73 578.08,264.73 280.96,0 477.26,-86.44 588.92,-259.35 111.65,-172.88 167.47,-410.61 167.47,-713.16l0 -5618.88zm4722.04 4279c857.23,0 1285.85,-540.28 1285.85,-1620.84 0,-1073.32 -428.62,-1610.01 -1285.85,-1610.01 -857.25,0 -1285.87,536.69 -1285.87,1610.01 0,1080.56 428.62,1620.84 1285.87,1620.84zm0 1177.79c-432.22,0 -817.61,-68.41 -1156.21,-205.28 -338.56,-136.86 -624.89,-327.76 -859.03,-572.69 -234.13,-244.95 -412.43,-540.28 -534.87,-886.06 -122.47,-345.79 -183.7,-723.98 -183.7,-1134.6 0,-417.79 63.05,-799.59 189.08,-1145.38 126.08,-345.78 307.96,-641.14 545.7,-886.06 237.72,-244.93 524.08,-434.01 859.03,-567.28 335,-133.27 714.97,-199.91 1140,-199.91 417.81,0 792.41,66.64 1123.77,199.91 331.36,133.27 614.11,320.58 848.24,561.91 234.09,241.3 414.2,534.86 540.28,880.65 126.03,345.75 189.08,731.15 189.08,1156.16 0,425.03 -63.05,808.61 -189.08,1150.8 -126.08,342.19 -306.19,635.72 -540.28,880.65 -234.13,244.92 -518.67,434 -853.66,567.27 -334.95,133.27 -707.73,199.91 -1118.35,199.91zm6440.1 -2744.59c-72.03,72.04 -176.48,129.67 -313.36,172.88 -136.86,43.24 -334.98,90.06 -594.3,140.49 -403.42,79.25 -680.75,180.07 -832.04,302.56 -151.26,122.44 -226.91,298.95 -226.91,529.45 0,396.21 226.91,594.3 680.75,594.3 180.11,0 347.58,-30.59 502.46,-91.85 154.88,-61.21 288.15,-144.06 399.81,-248.52 111.65,-104.45 201.68,-226.9 270.13,-367.36 68.42,-140.51 102.65,-289.99 102.65,-448.43l10.8 -583.52zm97.26 2604.13c-43.24,-136.86 -72.04,-295.35 -86.44,-475.46 -165.68,187.31 -385.38,336.78 -659.15,448.47 -273.74,111.65 -590.68,167.45 -950.89,167.45 -612.29,0 -1060.72,-135.04 -1345.29,-405.19 -284.54,-270.13 -426.8,-621.33 -426.8,-1053.56 0,-381.79 61.21,-686.12 183.69,-913.06 122.46,-226.91 291.76,-405.19 507.87,-534.87 216.11,-129.67 473.64,-225.12 772.6,-286.34 298.95,-61.23 624.91,-117.07 977.88,-167.5 352.99,-50.4 590.71,-117.04 713.17,-199.88 122.47,-82.87 183.69,-217.93 183.69,-405.22 0,-172.88 -81.02,-307.96 -243.1,-405.19 -162.09,-97.27 -380.02,-145.89 -653.76,-145.89 -324.17,0 -556.48,72.03 -696.95,216.11 -140.47,144.07 -228.71,334.97 -264.73,572.69l-1307.46 0c7.19,-273.74 52.2,-525.85 135.04,-756.39 82.84,-230.5 216.11,-428.62 399.81,-594.3 183.7,-165.68 423.21,-293.55 718.58,-383.61 295.35,-90.03 655.53,-135.06 1080.56,-135.06 417.79,0 772.57,46.84 1064.31,140.47 291.76,93.67 525.89,228.73 702.37,405.24 176.51,176.46 304.36,396.18 383.61,659.12 79.24,262.95 118.84,560.09 118.84,891.45l0 3360.52 -1307.46 0zm4538.31 -1037.32c857.23,0 1285.85,-540.28 1285.85,-1620.84 0,-1073.32 -428.62,-1610.01 -1285.85,-1610.01 -857.24,0 -1285.87,536.69 -1285.87,1610.01 0,1080.56 428.63,1620.84 1285.87,1620.84zm0 1177.79c-432.22,0 -817.61,-68.41 -1156.19,-205.28 -338.57,-136.86 -624.91,-327.76 -859.04,-572.69 -234.13,-244.95 -412.42,-540.28 -534.87,-886.06 -122.47,-345.79 -183.69,-723.98 -183.69,-1134.6 0,-417.79 63.03,-799.59 189.08,-1145.38 126.08,-345.78 307.96,-641.14 545.69,-886.06 237.72,-244.93 524.08,-434.01 859.04,-567.28 334.98,-133.27 714.96,-199.91 1139.99,-199.91 417.81,0 792.41,66.64 1123.77,199.91 331.36,133.27 614.11,320.58 848.24,561.91 234.1,241.3 414.2,534.86 540.28,880.65 126.05,345.75 189.08,731.15 189.08,1156.16 0,425.03 -63.03,808.61 -189.08,1150.8 -126.08,342.19 -306.18,635.72 -540.28,880.65 -234.13,244.92 -518.67,434 -853.65,567.27 -334.97,133.27 -707.75,199.91 -1118.36,199.91z"/>
  <g id="_2983587911680">
   <path class="fil0" d="M4335.44 2229.46c134.33,-177.09 205.33,-388.46 205.33,-611.35 0,-273.21 -107.18,-529.31 -301.74,-721.16 -194.56,-191.81 -452.38,-295.41 -725.64,-291.44 -264.81,3.74 -514.31,109.99 -702.49,299.19 -188.21,189.18 -293.17,439.23 -295.57,704.09 -2.08,227 69.31,442.19 206.48,622.34 222.65,292.35 345.27,650.49 345.27,1008.42l0 391.65c0,173.72 141.34,315.06 315.07,315.06l293.04 0c173.72,0 315.06,-141.34 315.06,-315.06l0 -391.6c0,-361.9 118.52,-711.19 345.2,-1010.12zm-1510.33 -77c-119.54,-156.99 -181.76,-344.57 -179.94,-542.5 4.32,-475.55 394.6,-867.92 870.03,-874.64 238.51,-3.17 463.08,86.9 632.65,254.12 169.62,167.25 263.07,390.5 263.07,628.72 0,194.25 -61.88,378.51 -178.92,532.87 -238.84,314.98 -367.46,682.4 -372.74,1064.12l-662.51 0c-5.46,-378.01 -136.9,-754.49 -371.65,-1062.68zm371.82 1434.71l0 -52.54 663.47 76 0 20.55c0,10.81 -1.1,21.38 -2.88,31.7l-660.59 -75.7zm0 -183.22l0 -58.96 663.47 0 0 134.96 -663.47 -76zm185.21 412.43c-69.75,0 -130.57,-38.75 -162.13,-95.85l558.9 64.03c-29.59,20.07 -65.31,31.81 -103.68,31.81l-293.08 0z"/>
   <path class="fil0" d="M2886.02 1715.8c-5.03,-33.99 -7.48,-68.9 -7.15,-103.73 0.33,-35.85 -28.49,-65.18 -64.34,-65.52 -35.58,-0.29 -65.17,28.49 -65.52,64.32 -0.38,41.64 2.5,83.35 8.59,124.06 4.83,32.25 32.5,55.36 64.12,55.36 3.21,0 6.42,-0.25 9.68,-0.71 35.46,-5.28 59.89,-38.34 54.62,-73.79z"/>
   <path class="fil0" d="M3268.1 2701.92c6.71,0 13.53,-1.05 20.29,-3.26 34.07,-11.21 52.58,-47.89 41.38,-81.95 -71.93,-218.82 -179.17,-422.66 -318.73,-605.9 -23.04,-30.27 -43.48,-62.51 -60.74,-95.91 -16.45,-31.83 -55.63,-44.3 -87.49,-27.85 -31.83,16.48 -44.31,55.66 -27.86,87.49 20.71,40.03 45.18,78.7 72.78,114.97 130.77,171.68 231.28,362.73 298.71,567.76 8.97,27.31 34.37,44.63 61.67,44.63z"/>
   <path class="fil0" d="M4210.19 1840.44c-32.92,-14.2 -71.13,1.02 -85.33,33.94 -20.55,47.76 -47.18,93.33 -79.09,135.42 -21.67,28.57 -16.04,69.28 12.47,90.96 11.76,8.88 25.54,13.18 39.2,13.18 19.65,0 39.01,-8.88 51.77,-25.7 38.25,-50.43 70.21,-105.11 94.93,-162.51 14.17,-32.93 -1.02,-71.1 -33.95,-85.3z"/>
   <path class="fil0" d="M3528.02 968.97c357.96,0 649.18,291.22 649.18,649.18 0,20.33 -0.93,40.87 -2.79,60.95 -3.27,35.72 23.04,67.29 58.74,70.57 1.99,0.17 4.03,0.26 6,0.26 33.18,0 61.46,-25.27 64.54,-58.96 2.19,-24.05 3.34,-48.53 3.34,-72.83 0,-429.56 -349.47,-779.02 -779.02,-779.02 -35.85,0 -64.94,29.07 -64.94,64.92 0,35.84 29.08,64.92 64.94,64.92z"/>
   <path class="fil0" d="M3528.02 493.42c35.87,0 64.92,-29.08 64.92,-64.92l0 -363.58c0,-35.84 -29.05,-64.92 -64.92,-64.92 -35.85,0 -64.94,29.08 -64.94,64.92l0 363.58c0,35.84 29.08,64.92 64.94,64.92z"/>
   <path class="fil0" d="M2871.21 621.7c12.06,20.84 33.86,32.47 56.3,32.47 10.99,0 22.15,-2.79 32.38,-8.71 31.07,-17.92 41.71,-57.61 23.76,-88.68l-181.67 -314.76c-17.96,-31.01 -57.65,-41.67 -88.68,-23.75 -31.06,17.92 -41.71,57.65 -23.79,88.67l181.7 314.76z"/>
   <path class="fil0" d="M4915.42 2355.51l-314.72 -181.7c-31.06,-17.93 -70.75,-7.28 -88.67,23.79 -17.92,31.01 -7.31,70.75 23.75,88.67l314.76 181.71c10.23,5.87 21.39,8.71 32.38,8.71 22.45,0 44.25,-11.66 56.29,-32.5 17.93,-31.03 7.28,-70.76 -23.79,-88.68z"/>
   <path class="fil0" d="M2140.58 903.41l314.76 181.71c10.19,5.92 21.34,8.71 32.38,8.71 22.44,0 44.25,-11.67 56.29,-32.47 17.92,-31.06 7.28,-70.79 -23.79,-88.71l-314.72 -181.67c-31.07,-17.96 -70.76,-7.31 -88.67,23.76 -17.98,31.06 -7.32,70.75 23.75,88.67z"/>
   <path class="fil0" d="M5092.57 1564.55l-363.58 0c-35.84,0 -64.92,29.05 -64.92,64.94 0,35.82 29.08,64.92 64.92,64.92l363.58 0c35.84,0 64.92,-29.1 64.92,-64.92 0,-35.88 -29.08,-64.94 -64.92,-64.94z"/>
   <path class="fil0" d="M2391.94 1629.49c0,-35.88 -29.07,-64.94 -64.92,-64.94l-363.52 0c-35.9,0 -64.94,29.05 -64.94,64.94 0,35.82 29.04,64.92 64.94,64.92l363.52 0c35.9,0 64.92,-29.1 64.92,-64.92z"/>
   <path class="fil0" d="M4568.29 1093.83c11.03,0 22.19,-2.79 32.41,-8.71l314.72 -181.71c31.07,-17.92 41.73,-57.61 23.79,-88.67 -17.92,-31.07 -57.64,-41.73 -88.67,-23.76l-314.76 181.67c-31.01,17.92 -41.67,57.65 -23.75,88.71 12,20.8 33.85,32.47 56.26,32.47z"/>
   <path class="fil0" d="M2455.35 2173.81l-314.76 181.7c-31.07,17.92 -41.73,57.65 -23.75,88.68 11.99,20.84 33.8,32.5 56.24,32.5 11.03,0 22.19,-2.83 32.42,-8.71l314.72 -181.71c31.07,-17.92 41.71,-57.65 23.79,-88.67 -17.92,-31.07 -57.65,-41.73 -88.67,-23.79z"/>
   <path class="fil0" d="M4096.12 645.46c10.23,5.92 21.39,8.71 32.42,8.71 22.44,0 44.25,-11.67 56.3,-32.47l181.67 -314.76c17.92,-31.01 7.31,-70.75 -23.76,-88.67 -31.07,-17.92 -70.76,-7.27 -88.68,23.75l-181.7 314.76c-17.92,31.07 -7.27,70.76 23.75,88.68z"/>
  </g>
  <g id="_2983587923824">
   <path class="fil0" d="M5961.54 11607.25c0,16.66 0,32.41 0,47.28 0,14.87 0.6,28.83 1.79,41.93 2.38,23.78 6.25,43.11 11.6,57.97 5.35,14.87 14.87,26.17 28.54,33.91 13.68,7.73 31.81,12.77 54.41,15.16 22.6,2.38 51.74,2.38 87.42,0l0 178.38c-28.54,4.75 -56.8,8.33 -84.74,10.7 -27.95,2.38 -57.38,3.58 -88.31,3.58 -52.33,0 -96.02,-4.17 -131.11,-12.5 -35.08,-8.31 -63.93,-21.1 -86.53,-38.35 -22.6,-17.24 -39.24,-38.95 -49.95,-65.11 -10.7,-26.17 -17.24,-56.48 -19.62,-90.96 -2.38,-23.79 -3.58,-46.99 -3.58,-69.59 0,-22.58 0,-47.57 0,-74.92l0 -437.05 -144.48 0 0 -178.37 144.48 0 0 -239.05 280.07 0 0 239.05 201.58 0 0 178.37 -201.58 0 0 399.58zm1103.04 -126.64c0,24.98 -1.79,54.72 -5.35,89.21l-667.16 0c3.56,45.17 11.29,82.93 23.18,113.26 11.9,30.33 26.47,54.41 43.69,72.26 17.25,17.83 37.16,30.62 59.76,38.35 22.6,7.73 46.99,11.6 73.15,11.6 49.95,0 90.4,-12.48 121.3,-37.47 30.91,-24.98 50.55,-60.07 58.87,-105.27l276.5 0c-26.16,110.61 -80.59,194.14 -163.21,250.64 -82.67,56.49 -182.28,84.74 -298.81,84.74 -66.61,0 -128.75,-10.12 -186.41,-30.33 -57.68,-20.23 -107.94,-51.14 -150.76,-92.78 -42.82,-41.59 -76.39,-93.62 -100.77,-156.07 -24.37,-62.44 -36.57,-135.26 -36.57,-218.52 0,-71.36 11.6,-137.66 34.78,-198.89 23.2,-61.26 56.17,-114.48 98.99,-159.68 42.83,-45.2 94.57,-80.54 155.22,-106.12 60.63,-25.56 128.43,-38.35 203.37,-38.35 76.11,0 142.69,13.39 199.78,40.14 57.1,26.76 104.97,62.41 143.62,107.01 38.63,44.6 67.77,96.05 87.39,154.33 19.63,58.25 29.44,118.91 29.44,181.94zm-472.73 -290.77c-49.95,0 -91.58,16.06 -124.89,48.16 -33.27,32.12 -55.87,83.86 -67.75,155.19l374.58 0c-16.64,-135.57 -77.27,-203.35 -181.94,-203.35zm940.72 -192.66c66.61,0 126.34,9.52 179.27,28.54 52.93,19.04 98.42,45.49 136.48,79.37 38.06,33.89 68.06,73.74 90.06,119.52 22,45.79 34.79,95.46 38.35,148.95l-272.92 0c-9.52,-65.39 -30.04,-112.37 -61.55,-140.92 -31.49,-28.54 -70.44,-42.82 -116.83,-42.82 -59.47,0 -106.44,24.37 -140.95,73.15 -34.46,48.76 -51.71,123.66 -51.71,224.76 0,111.78 17.54,192.66 52.61,242.61 35.08,49.95 81.77,74.93 140.04,74.93 42.82,0 79.99,-14.27 111.47,-42.82 31.52,-28.54 52.64,-70.78 63.34,-126.67l276.5 0c-19.02,118.94 -70.76,209.03 -155.17,270.26 -84.45,61.24 -188.5,91.88 -312.19,91.88 -65.41,0 -126.67,-10.42 -183.73,-31.23 -57.09,-20.81 -106.15,-52.03 -147.18,-93.65 -41.04,-41.61 -73.42,-93.04 -97.2,-154.3 -23.79,-61.26 -35.69,-132.28 -35.69,-213.16 0,-82.07 12.79,-154.62 38.37,-217.64 25.56,-63.03 60.33,-115.96 104.34,-158.78 44.01,-42.82 95.44,-75.5 154.32,-98.1 58.85,-22.6 122.18,-33.89 189.98,-33.89zm1395.6 262.23c3.56,23.79 5.94,49.66 7.14,77.58 1.19,27.95 1.79,60.95 1.79,99.02l0 536.95 -280.07 0 0 -494.14c0,-17.83 0,-38.35 0,-61.55 0,-23.2 -1.19,-46.68 -3.58,-70.47 -3.56,-48.73 -19.02,-87.08 -46.38,-115.03 -27.37,-27.96 -68.37,-41.93 -123.08,-41.93 -54.7,1.19 -100.5,28.24 -137.37,81.17 -36.87,52.93 -55.3,140.03 -55.3,261.34l0 440.61 -280.04 0 0 -1320.07 280.04 0 0 519.1 78.5 -114.15c32.12,-21.41 65.71,-36.87 100.8,-46.39 35.08,-9.52 75.2,-14.27 120.39,-14.27 101.09,0 179.89,22.89 236.36,68.68 56.49,45.77 90.09,110.29 100.8,193.54zm3153.27 713.55l-280.07 0 0 -142.7 -71.36 105.24c-27.37,20.22 -62.74,35.68 -106.12,46.39 -43.41,10.7 -89.51,16.06 -138.27,16.06 -65.41,0 -124.26,-11.9 -176.6,-35.69 -52.33,-23.78 -96.63,-57.09 -132.91,-99.9 -36.25,-42.79 -63.9,-93.64 -82.93,-152.51 -19.04,-58.87 -28.56,-123.36 -28.56,-193.54 0,-85.63 12.19,-160.57 36.58,-224.76 24.39,-64.22 57.06,-118.35 98.1,-162.35 41.03,-44.01 89.19,-76.98 144.51,-98.99 55.3,-22 113.26,-33.01 173.92,-33.01 39.24,0 79.98,4.46 122.21,13.39 42.19,8.91 75.2,21.1 98.99,36.57l62.44 99.89 0 -485.21 280.07 0 0 1311.15zm-506.62 -167.67c32.12,0 61.84,-5.35 89.18,-16.06 27.35,-10.71 51.14,-27.66 71.36,-50.85 20.22,-23.18 36.28,-53.51 48.16,-90.98 11.9,-37.47 17.85,-83.52 17.85,-138.24l0 -44.6c0,-51.14 -6.54,-94.25 -19.62,-129.32 -13.09,-35.08 -29.74,-63.32 -49.97,-84.74 -20.22,-21.41 -43.41,-36.87 -69.57,-46.38 -26.13,-9.52 -52.31,-14.27 -78.47,-14.27 -67.8,0 -123.4,25.56 -166.81,76.71 -43.38,51.14 -65.1,129.03 -65.1,233.68 0,93.94 20.52,168.27 61.52,222.99 41.04,54.72 94.86,82.07 161.47,82.07zm1497.26 -324.68c0,24.98 -1.79,54.72 -5.35,89.21l-667.17 0c3.58,45.17 11.31,82.93 23.2,113.26 11.9,30.33 26.47,54.41 43.69,72.26 17.24,17.83 37.16,30.62 59.76,38.35 22.6,7.73 46.99,11.6 73.15,11.6 49.95,0 90.4,-12.48 121.3,-37.47 30.91,-24.98 50.55,-60.07 58.87,-105.27l276.5 0c-26.16,110.61 -80.59,194.14 -163.21,250.64 -82.67,56.49 -182.28,84.74 -298.81,84.74 -66.61,0 -128.75,-10.12 -186.41,-30.33 -57.68,-20.23 -107.94,-51.14 -150.76,-92.78 -42.82,-41.59 -76.39,-93.62 -100.77,-156.07 -24.37,-62.44 -36.57,-135.26 -36.57,-218.52 0,-71.36 11.6,-137.66 34.78,-198.89 23.2,-61.26 56.17,-114.48 98.99,-159.68 42.83,-45.2 94.57,-80.54 155.22,-106.12 60.63,-25.56 128.43,-38.35 203.37,-38.35 76.11,0 142.69,13.39 199.78,40.14 57.1,26.76 104.96,62.41 143.62,107.01 38.63,44.6 67.77,96.05 87.39,154.33 19.63,58.25 29.44,118.91 29.44,181.94zm-472.73 -290.77c-49.95,0 -91.58,16.06 -124.89,48.16 -33.27,32.12 -55.87,83.86 -67.75,155.19l374.58 0c-16.64,-135.57 -77.27,-203.35 -181.94,-203.35zm1086.98 783.12l-306.8 0 -372.84 -950.79 310.39 0 219.41 734.94 217.64 -734.94 303.25 0 -371.05 950.79zm2933.69 -975.77c65.41,0 124.29,11.89 176.62,35.68 52.31,23.79 96.6,56.77 132.88,98.99 36.28,42.22 63.93,92.77 82.96,151.64 19.04,58.85 28.54,123.37 28.54,193.56 0,85.63 -12.18,160.83 -36.57,225.65 -24.39,64.82 -57.09,119.25 -98.13,163.22 -41.03,44.01 -89.21,77.01 -144.48,99.02 -55.31,22 -113.29,33.01 -173.95,33.01 -39.23,0 -79.95,-4.46 -122.18,-13.39 -42.22,-8.92 -75.23,-21.12 -99.02,-36.58l-62.44 -99.9 0 124.89 -280.04 0 0 -1311.15 280.04 0 0 503.05 71.36 -105.24c27.35,-20.22 62.74,-35.68 106.15,-46.38 43.41,-10.71 89.47,-16.06 138.24,-16.06zm-98.1 808.1c67.77,0 123.37,-25.58 166.79,-76.72 43.41,-51.14 65.12,-129.04 65.12,-233.68 0,-93.96 -20.52,-168.27 -61.56,-222.97 -41.03,-54.72 -94.85,-82.07 -161.42,-82.07 -32.12,0 -61.85,5.35 -89.21,16.06 -27.35,10.7 -51.43,27.64 -72.26,50.84 -20.81,23.2 -36.87,53.53 -48.16,90.96 -11.29,37.47 -16.95,83.55 -16.95,138.26l0 42.83c0,51.14 6.23,94.22 18.73,129.3 12.48,35.1 29.14,63.64 49.95,85.65 20.81,22 44.3,37.76 70.47,47.28 26.16,9.5 52.33,14.27 78.5,14.27zm1079.85 -808.1c15.43,0 28.51,0.6 39.23,1.79 10.7,1.19 21.41,2.96 32.1,5.35l0 226.55c-54.7,-3.56 -101.95,-0.29 -141.8,9.81 -39.85,10.12 -72.86,28.85 -99.02,56.2 -26.16,27.35 -45.2,63.6 -57.09,108.8 -11.9,45.2 -17.85,101.69 -17.85,169.49l0 397.79 -280.04 0 0 -950.79 280.04 0 0 181.94 71.36 -131.99c23.79,-24.98 51.74,-43.72 83.86,-56.2 32.12,-12.48 61.85,-18.73 89.21,-18.73zm605.3 836.65l-42.79 101.66c-34.49,21.41 -71.36,37.16 -110.61,47.28 -39.24,10.12 -80.88,15.17 -124.86,15.17 -40.43,0 -79.09,-5.96 -115.96,-17.85 -36.87,-11.89 -69.28,-29.74 -97.23,-53.53 -27.92,-23.78 -50.23,-52.93 -66.87,-87.39 -16.66,-34.49 -24.98,-74.34 -24.98,-119.54 0,-104.66 44.3,-185.5 132.88,-242.59 88.61,-57.1 217.33,-85.65 386.23,-85.65l60.66 0 0 -16.06c0,-13.08 0,-25.87 0,-38.35 0,-12.46 -1.19,-27.03 -3.58,-43.67 -2.37,-28.54 -14.56,-52.93 -36.57,-73.15 -22,-20.23 -53.82,-30.33 -95.46,-30.33 -44.01,0 -77.9,12.77 -101.69,38.35 -23.76,25.58 -37.44,62.14 -41,109.7l-267.59 0c1.19,-54.69 13.09,-103.16 35.68,-145.38 22.57,-42.22 52.9,-77.91 90.37,-107.05 37.47,-29.11 81.77,-51.11 132.33,-65.98 50.52,-14.87 105.22,-22.29 163.5,-22.29 70.47,0 130.22,7.43 179.58,22.29 49.66,14.87 89.8,35.1 120.71,60.66 31.23,25.55 54.41,56.17 69.88,91.85 15.43,35.68 24.95,74.93 28.51,117.75 3.58,44.01 5.36,95.12 5.36,153.4l0 289c0,35.68 1.19,71.36 3.56,107.04 2.38,35.65 7.14,80.25 14.27,133.78l-274.71 0 -19.63 -139.13zm-167.67 -28.54c41.64,0 79.4,-14.87 113.29,-44.6 33.91,-29.74 50.85,-74.34 50.85,-133.81l0 -69.54c-86.82,-7.14 -157.3,0.29 -211.42,22.29 -54.08,21.97 -81.14,60.92 -81.14,116.83 0,35.68 11.89,62.74 35.68,81.17 23.76,18.44 54.67,27.66 92.74,27.66zm1456.26 -545.88c3.56,23.79 5.94,49.66 7.14,77.58 1.19,27.95 1.79,60.95 1.79,99.02l0 536.95 -280.07 0 0 -494.14c0,-17.83 0,-38.35 0,-61.55 0,-23.2 -1.19,-46.68 -3.58,-70.47 -3.56,-48.73 -19.02,-87.08 -46.39,-115.03 -27.35,-27.96 -68.35,-41.93 -123.07,-41.93 -54.7,0 -100.5,26.76 -137.37,80.28 -36.87,53.53 -55.3,140.92 -55.3,262.23l0 440.61 -280.04 0 0 -950.79 280.04 0 0 149.83 78.5 -114.15c32.1,-21.41 65.71,-36.87 100.8,-46.39 35.08,-9.52 75.2,-14.27 120.39,-14.27 101.09,0 179.89,22.89 236.36,68.68 56.49,45.77 90.09,110.29 100.8,193.54zm1051.32 713.55l-280.06 0 0 -142.7 -71.37 105.24c-27.35,20.22 -62.74,35.68 -106.12,46.39 -43.41,10.7 -89.5,16.06 -138.26,16.06 -65.41,0 -124.26,-11.9 -176.6,-35.69 -52.33,-23.78 -96.65,-57.09 -132.92,-99.9 -36.25,-42.79 -63.89,-93.64 -82.93,-152.51 -19.02,-58.87 -28.54,-123.36 -28.54,-193.54 0,-85.63 12.19,-160.57 36.58,-224.76 24.37,-64.22 57.06,-118.35 98.09,-162.35 41.04,-44.01 89.21,-76.98 144.52,-98.99 55.3,-22 113.26,-33.01 173.91,-33.01 39.25,0 79.99,4.46 122.21,13.39 42.19,8.91 75.2,21.1 98.99,36.57l62.45 99.89 0 -485.21 280.06 0 0 1311.15zm-506.61 -167.67c32.1,0 61.84,-5.35 89.16,-16.06 27.37,-10.71 51.14,-27.66 71.37,-50.85 20.22,-23.18 36.28,-53.51 48.16,-90.98 11.89,-37.47 17.85,-83.52 17.85,-138.24l0 -44.6c0,-51.14 -6.54,-94.25 -19.63,-129.32 -13.08,-35.08 -29.74,-63.32 -49.95,-84.74 -20.22,-21.41 -43.41,-36.87 -69.57,-46.38 -26.15,-9.52 -52.31,-14.27 -78.48,-14.27 -67.78,0 -123.39,25.56 -166.8,76.71 -43.4,51.14 -65.1,129.03 -65.1,233.68 0,93.94 20.52,168.27 61.52,222.99 41.03,54.72 94.86,82.07 161.47,82.07z"/>
   <path class="fil0" d="M10635.04 11817.77l-146.26 -135.58c53.48,-80.28 90.95,-176.6 114.15,-283.65l-222.99 -69.54c-14.27,73.12 -35.68,139.13 -62.44,194.43l-228.33 -212.28c169.49,-92.77 244.39,-187.32 244.39,-315.75 0,-176.6 -142.7,-287.21 -358.54,-287.21 -235.47,0 -388.9,124.86 -388.9,306.84 0,89.16 37.45,169.45 128.45,264.01 -190.9,107.01 -274.71,215.84 -274.71,372.81 0,199.78 201.56,342.51 476.29,342.51 160.54,0 303.25,-49.95 417.41,-139.16l149.85 139.16 151.63 -176.6zm-660.02 -920.49c80.25,0 123.07,42.82 123.07,103.48 0,57.09 -39.25,103.43 -162.32,169.45 -76.72,-74.92 -96.34,-110.58 -96.34,-158.75 0,-66.01 49.95,-114.17 135.6,-114.17zm-39.25 879.46c-137.37,0 -222.99,-64.24 -222.99,-155.22 0,-76.69 41.04,-133.78 155.19,-199.79l301.48 281.86c-67.8,48.16 -148.08,73.15 -233.68,73.15zm5717.89 41.03l-146.26 -135.58c53.5,-80.28 90.96,-176.6 114.16,-283.65l-222.99 -69.54c-14.27,73.12 -35.68,139.13 -62.44,194.43l-228.33 -212.28c169.49,-92.77 244.38,-187.32 244.38,-315.75 0,-176.6 -142.69,-287.21 -358.54,-287.21 -235.47,0 -388.9,124.86 -388.9,306.84 0,89.16 37.47,169.45 128.46,264.01 -190.9,107.01 -274.73,215.84 -274.73,372.81 0,199.78 201.58,342.51 476.29,342.51 160.54,0 303.27,-49.95 417.41,-139.16l149.87 139.16 151.61 -176.6zm-660.02 -920.49c80.25,0 123.08,42.82 123.08,103.48 0,57.09 -39.25,103.43 -162.32,169.45 -76.72,-74.92 -96.34,-110.58 -96.34,-158.75 0,-66.01 49.95,-114.17 135.58,-114.17zm-39.24 879.46c-137.38,0 -222.99,-64.24 -222.99,-155.22 0,-76.69 41.03,-133.78 155.19,-199.79l301.48 281.86c-67.8,48.16 -148.08,73.15 -233.68,73.15z"/>
  </g>
 </g>
</svg>
