<?xml version="1.0" encoding="UTF-8"?>
<!DOCTYPE svg PUBLIC "-//W3C//DTD SVG 1.1//EN" "http://www.w3.org/Graphics/SVG/1.1/DTD/svg11.dtd">
<!-- Creator: CorelDRAW 2021 (64 Bit) -->
<svg xmlns="http://www.w3.org/2000/svg" xml:space="preserve" width="146.692mm" height="86.1052mm" version="1.1" style="shape-rendering:geometricPrecision; text-rendering:geometricPrecision; image-rendering:optimizeQuality; fill-rule:evenodd; clip-rule:evenodd"
viewBox="0 0 17501.6 10273.11"
 xmlns:xlink="http://www.w3.org/1999/xlink"
 xmlns:xodm="http://www.corel.com/coreldraw/odm/2003">
 <defs>
  <style type="text/css">
   <![CDATA[
    .fil1 {fill:black;fill-rule:nonzero}
    .fil0 {fill:#FBB22F;fill-rule:nonzero}
   ]]>
  </style>
 </defs>
 <g id="Camada_x0020_1">
  <metadata id="CorelCorpID_0Corel-Layer"/>
  <path class="fil0" d="M2315.21 3841.95l1162.04 0 0 4657.03c0,266.12 -44.36,507.1 -133.04,722.95 -88.71,215.87 -209.95,402.13 -363.7,558.84 -153.77,156.71 -335.59,277.97 -545.54,363.69 -209.94,85.76 -436.13,128.64 -678.6,128.64 -597.28,0 -1039.32,-164.11 -1326.14,-492.33 -286.82,-328.21 -430.23,-773.2 -430.23,-1335.01l1082.21 0c0,248.38 45.84,445 137.5,589.9 91.65,144.88 249.83,217.32 474.55,217.32 230.65,0 391.81,-70.96 483.46,-212.91 91.66,-141.92 137.48,-337.07 137.48,-585.45l0 -4612.68zm3876.46 3512.74c703.71,0 1055.58,-443.53 1055.58,-1330.58 0,-881.13 -351.88,-1321.71 -1055.58,-1321.71 -703.74,0 -1055.62,440.58 -1055.62,1321.71 0,887.05 351.88,1330.58 1055.62,1330.58zm0 966.89c-354.82,0 -671.21,-56.17 -949.16,-168.54 -277.93,-112.35 -513,-269.07 -705.21,-470.14 -192.21,-201.08 -338.56,-443.53 -439.08,-727.39 -100.55,-283.86 -150.81,-594.34 -150.81,-931.41 0,-342.99 51.74,-656.41 155.22,-940.28 103.5,-283.86 252.82,-526.32 447.97,-727.39 195.17,-201.06 430.23,-356.29 705.21,-465.7 274.99,-109.39 586.94,-164.1 935.86,-164.1 342.98,0 650.5,54.7 922.52,164.1 272.02,109.41 504.14,263.17 696.35,461.28 192.18,198.09 340.03,439.08 443.53,722.95 103.48,283.84 155.22,600.22 155.22,949.14 0,348.91 -51.74,663.8 -155.22,944.71 -103.5,280.91 -251.35,521.88 -443.53,722.95 -192.21,201.06 -425.78,356.29 -700.78,465.7 -274.98,109.41 -581.01,164.11 -918.08,164.11zm5286.84 -2253.12c-59.12,59.14 -144.88,106.45 -257.23,141.92 -112.37,35.49 -275.01,73.94 -487.89,115.34 -331.17,65.06 -558.84,147.84 -683.03,248.38 -124.18,100.52 -186.28,245.42 -186.28,434.64 0,325.26 186.28,487.89 558.84,487.89 147.85,0 285.33,-25.13 412.47,-75.4 127.16,-50.26 236.57,-118.27 328.22,-204.02 91.66,-85.76 165.58,-186.28 221.77,-301.59 56.16,-115.34 84.26,-238.04 84.26,-368.13l8.86 -479.02zm79.84 2137.8c-35.48,-112.35 -59.14,-242.46 -70.95,-390.31 -136.01,153.75 -316.38,276.46 -541.13,368.15 -224.72,91.65 -484.91,137.48 -780.6,137.48 -502.66,0 -870.79,-110.87 -1104.38,-332.64 -233.58,-221.76 -350.39,-510.07 -350.39,-864.89 0,-313.42 50.26,-563.26 150.81,-749.56 100.52,-186.28 239.51,-332.63 416.92,-439.08 177.41,-106.46 388.83,-184.81 634.25,-235.07 245.42,-50.26 512.99,-96.1 802.77,-137.5 289.77,-41.38 484.93,-96.08 585.45,-164.09 100.54,-68.03 150.81,-178.89 150.81,-332.66 0,-141.92 -66.51,-252.82 -199.58,-332.63 -133.05,-79.84 -311.96,-119.76 -536.67,-119.76 -266.12,0 -456.83,59.13 -572.15,177.41 -115.31,118.27 -187.77,274.98 -217.32,470.14l-1073.34 0c5.91,-224.72 42.87,-431.68 110.87,-620.93 68.01,-189.24 177.41,-351.88 328.22,-487.89 150.81,-136.01 347.43,-240.98 589.89,-314.92 242.47,-73.91 538.14,-110.86 887.06,-110.86 342.99,0 634.22,38.44 873.73,115.31 239.51,76.88 431.72,187.76 576.58,332.66 144.9,144.88 249.87,325.24 314.92,541.09 65.06,215.87 97.57,459.79 97.57,731.82l0 2758.74 -1073.34 0zm3725.63 -851.57c703.72,0 1055.58,-443.53 1055.58,-1330.58 0,-881.13 -351.87,-1321.71 -1055.58,-1321.71 -703.74,0 -1055.61,440.58 -1055.61,1321.71 0,887.05 351.87,1330.58 1055.61,1330.58zm0 966.89c-354.82,0 -671.21,-56.17 -949.16,-168.54 -277.93,-112.35 -513,-269.07 -705.21,-470.14 -192.19,-201.08 -338.56,-443.53 -439.08,-727.39 -100.54,-283.86 -150.81,-594.34 -150.81,-931.41 0,-342.99 51.74,-656.41 155.22,-940.28 103.5,-283.86 252.82,-526.32 447.98,-727.39 195.15,-201.06 430.22,-356.29 705.2,-465.7 275.01,-109.39 586.94,-164.1 935.86,-164.1 342.98,0 650.5,54.7 922.52,164.1 272.04,109.41 504.14,263.17 696.35,461.28 192.18,198.09 340.03,439.08 443.53,722.95 103.48,283.84 155.22,600.22 155.22,949.14 0,348.91 -51.74,663.8 -155.22,944.71 -103.5,280.91 -251.35,521.88 -443.53,722.95 -192.21,201.06 -425.78,356.29 -700.78,465.7 -274.98,109.41 -581.01,164.11 -918.08,164.11z"/>
  <g id="_2983594170608">
   <path class="fil1" d="M3559.08 1830.23c110.27,-145.38 168.56,-318.9 168.56,-501.87 0,-224.29 -87.99,-434.52 -247.72,-592.01 -159.71,-157.46 -371.36,-242.52 -595.7,-239.25 -217.38,3.05 -422.2,90.28 -576.68,245.6 -154.5,155.3 -240.67,360.58 -242.65,578 -1.71,186.36 56.91,363.01 169.5,510.89 182.79,240.01 283.45,534.01 283.45,827.84l0 321.51c0,142.61 116.03,258.64 258.64,258.64l240.56 0c142.62,0 258.64,-116.03 258.64,-258.64l0 -321.48c0,-297.09 97.3,-583.84 283.39,-829.23zm-1239.88 -63.21c-98.12,-128.88 -149.2,-282.87 -147.7,-445.36 3.53,-390.39 323.94,-712.5 714.22,-718.01 195.81,-2.6 380.17,71.33 519.38,208.61 139.23,137.3 215.96,320.57 215.96,516.13 0,159.48 -50.81,310.73 -146.88,437.45 -196.08,258.58 -301.67,560.2 -306,873.57l-543.87 0c-4.47,-310.31 -112.38,-619.37 -305.1,-872.39zm305.24 1177.79l0 -43.13 544.66 62.4 0 16.86c0,8.88 -0.89,17.56 -2.35,26.02l-542.31 -62.15zm0 -150.41l0 -48.4 544.66 0 0 110.79 -544.66 -62.39zm152.05 338.59c-57.24,0 -107.18,-31.82 -133.1,-78.7l458.81 52.57c-24.28,16.48 -53.61,26.13 -85.11,26.13l-240.6 0z"/>
   <path class="fil1" d="M2369.2 1408.56c-4.13,-27.91 -6.14,-56.56 -5.87,-85.15 0.29,-29.43 -23.37,-53.51 -52.81,-53.78 -29.22,-0.24 -53.5,23.38 -53.78,52.81 -0.31,34.18 2.05,68.42 7.04,101.84 3.96,26.47 26.69,45.46 52.64,45.46 2.64,0 5.27,-0.21 7.96,-0.6 29.1,-4.33 49.17,-31.47 44.82,-60.57z"/>
   <path class="fil1" d="M2682.87 2218.09c5.51,0 11.1,-0.86 16.66,-2.67 27.95,-9.19 43.15,-39.3 33.97,-67.28 -59.06,-179.63 -147.08,-346.97 -261.67,-497.4 -18.91,-24.84 -35.7,-51.31 -49.86,-78.73 -13.49,-26.13 -45.66,-36.37 -71.82,-22.86 -26.13,13.53 -36.37,45.7 -22.86,71.82 16.99,32.86 37.09,64.61 59.74,94.39 107.37,140.94 189.87,297.77 245.23,466.09 7.35,22.42 28.2,36.64 50.62,36.64z"/>
   <path class="fil1" d="M3456.26 1510.88c-27.04,-11.66 -58.4,0.84 -70.05,27.86 -16.87,39.22 -38.73,76.62 -64.93,111.17 -17.8,23.46 -13.18,56.87 10.24,74.68 9.64,7.29 20.96,10.82 32.17,10.82 16.13,0 32.02,-7.28 42.51,-21.09 31.4,-41.4 57.63,-86.28 77.93,-133.41 11.62,-27.04 -0.85,-58.37 -27.87,-70.02z"/>
   <path class="fil1" d="M2896.23 795.47c293.86,0 532.93,239.07 532.93,532.93 0,16.69 -0.76,33.55 -2.29,50.04 -2.67,29.33 18.91,55.24 48.24,57.95 1.62,0.13 3.29,0.2 4.92,0.2 27.25,0 50.46,-20.75 52.99,-48.39 1.81,-19.76 2.74,-39.85 2.74,-59.8 0,-352.63 -286.88,-639.52 -639.52,-639.52 -29.43,0 -53.3,23.86 -53.3,53.3 0,29.42 23.86,53.3 53.3,53.3z"/>
   <path class="fil1" d="M2896.23 405.08c29.46,0 53.3,-23.87 53.3,-53.3l0 -298.47c0,-29.42 -23.84,-53.3 -53.3,-53.3 -29.43,0 -53.3,23.87 -53.3,53.3l0 298.47c0,29.42 23.86,53.3 53.3,53.3z"/>
   <path class="fil1" d="M2357.05 510.38c9.89,17.12 27.79,26.65 46.21,26.65 9.03,0 18.18,-2.29 26.59,-7.15 25.5,-14.71 34.24,-47.29 19.5,-72.8l-149.14 -258.4c-14.75,-25.46 -47.32,-34.21 -72.79,-19.5 -25.51,14.71 -34.25,47.33 -19.54,72.79l149.17 258.4z"/>
   <path class="fil1" d="M4035.2 1933.72l-258.36 -149.17c-25.51,-14.72 -58.09,-5.98 -72.8,19.53 -14.71,25.46 -6,58.08 19.51,72.79l258.4 149.17c8.39,4.82 17.55,7.15 26.57,7.15 18.43,0 36.33,-9.57 46.22,-26.68 14.72,-25.47 5.97,-58.09 -19.53,-72.79z"/>
   <path class="fil1" d="M1757.25 741.65l258.41 149.17c8.35,4.86 17.51,7.15 26.57,7.15 18.42,0 36.33,-9.57 46.22,-26.65 14.71,-25.5 5.97,-58.12 -19.54,-72.83l-258.35 -149.14c-25.51,-14.73 -58.09,-6 -72.8,19.51 -14.75,25.5 -6,58.08 19.5,72.79z"/>
   <path class="fil1" d="M4180.62 1284.41l-298.46 0c-29.43,0 -53.31,23.84 -53.31,53.3 0,29.42 23.87,53.3 53.31,53.3l298.46 0c29.43,0 53.3,-23.87 53.3,-53.3 0,-29.46 -23.86,-53.3 -53.3,-53.3z"/>
   <path class="fil1" d="M1963.61 1337.7c0,-29.46 -23.87,-53.3 -53.31,-53.3l-298.43 0c-29.47,0 -53.3,23.84 -53.3,53.3 0,29.42 23.83,53.3 53.3,53.3l298.43 0c29.47,0 53.31,-23.87 53.31,-53.3z"/>
   <path class="fil1" d="M3750.22 897.97c9.07,0 18.22,-2.29 26.62,-7.15l258.36 -149.17c25.5,-14.71 34.25,-47.29 19.53,-72.79 -14.71,-25.51 -47.33,-34.24 -72.79,-19.51l-258.4 149.14c-25.47,14.71 -34.22,47.33 -19.51,72.83 9.85,17.09 27.8,26.65 46.18,26.65z"/>
   <path class="fil1" d="M2015.66 1784.55l-258.41 149.17c-25.5,14.7 -34.24,47.32 -19.5,72.79 9.85,17.11 27.76,26.68 46.18,26.68 9.06,0 18.22,-2.33 26.62,-7.15l258.35 -149.17c25.51,-14.71 34.25,-47.33 19.54,-72.79 -14.71,-25.51 -47.33,-34.25 -72.79,-19.53z"/>
   <path class="fil1" d="M3362.61 529.89c8.4,4.86 17.55,7.15 26.62,7.15 18.42,0 36.32,-9.58 46.21,-26.65l149.14 -258.4c14.71,-25.46 6.01,-58.08 -19.51,-72.79 -25.5,-14.71 -58.08,-5.97 -72.79,19.5l-149.17 258.4c-14.71,25.51 -5.97,58.09 19.51,72.8z"/>
  </g>
  <g id="_2983594177280">
   <path class="fil1" d="M4893.99 9528.72c0,13.67 0,26.61 0,38.81 0,12.21 0.49,23.68 1.46,34.42 1.96,19.53 5.13,35.39 9.52,47.59 4.4,12.21 12.21,21.49 23.43,27.83 11.24,6.35 26.13,10.5 44.68,12.44 18.54,1.96 42.47,1.96 71.76,0l0 146.44c-23.43,3.9 -46.63,6.84 -69.57,8.78 -22.96,1.96 -47.12,2.93 -72.5,2.93 -42.96,0 -78.82,-3.41 -107.62,-10.25 -28.81,-6.84 -52.48,-17.34 -71.04,-31.5 -18.55,-14.15 -32.23,-31.97 -41.01,-53.45 -8.79,-21.49 -14.16,-46.36 -16.12,-74.68 -1.94,-19.53 -2.92,-38.56 -2.92,-57.11 0,-18.55 0,-39.06 0,-61.52l0 -358.79 -118.6 0 0 -146.43 118.6 0 0 -196.24 229.92 0 0 196.24 165.47 0 0 146.43 -165.47 0 0 328.03zm905.51 -103.97c0,20.51 -1.46,44.92 -4.39,73.23l-547.69 0c2.93,37.08 9.27,68.08 19.04,92.98 9.76,24.9 21.73,44.67 35.85,59.32 14.16,14.64 30.52,25.14 49.07,31.49 18.55,6.35 38.56,9.52 60.05,9.52 41.01,0 74.2,-10.25 99.56,-30.76 25.39,-20.5 41.5,-49.31 48.33,-86.42l226.98 0c-21.48,90.81 -66.14,159.37 -133.98,205.76 -67.86,46.38 -149.63,69.57 -245.3,69.57 -54.67,0 -105.68,-8.3 -153.03,-24.9 -47.35,-16.6 -88.6,-41.98 -123.76,-76.17 -35.15,-34.15 -62.71,-76.86 -82.72,-128.13 -20.02,-51.26 -30.03,-111.04 -30.03,-179.38 0,-58.59 9.52,-113.02 28.56,-163.29 19.04,-50.28 46.11,-93.98 81.26,-131.08 35.15,-37.09 77.62,-66.12 127.42,-87.12 49.76,-20.99 105.42,-31.49 166.94,-31.49 62.49,0 117.15,10.99 164.01,32.95 46.86,21.98 86.16,51.24 117.9,87.86 31.7,36.62 55.62,78.84 71.74,126.68 16.11,47.82 24.16,97.62 24.16,149.36zm-388.06 -238.7c-41.01,0 -75.19,13.18 -102.52,39.54 -27.32,26.37 -45.87,68.84 -55.63,127.4l307.52 0c-13.67,-111.28 -63.45,-166.94 -149.36,-166.94zm772.26 -158.16c54.67,0 103.72,7.81 147.17,23.43 43.44,15.63 80.8,37.36 112.03,65.15 31.25,27.82 55.88,60.54 73.95,98.13 18.06,37.58 28.55,78.35 31.49,122.27l-224.06 0c-7.81,-53.68 -24.65,-92.25 -50.53,-115.68 -25.85,-23.43 -57.83,-35.15 -95.91,-35.15 -48.81,0 -87.38,20.02 -115.69,60.05 -28.3,40.03 -42.45,101.52 -42.45,184.51 0,91.76 14.4,158.16 43.18,199.16 28.8,41.01 67.12,61.52 114.97,61.52 35.16,0 65.67,-11.72 91.52,-35.15 25.87,-23.43 43.2,-58.1 51.99,-103.99l226.98 0c-15.62,97.64 -58.09,171.6 -127.4,221.87 -69.32,50.28 -154.73,75.43 -256.28,75.43 -53.7,0 -103.99,-8.54 -150.83,-25.64 -46.86,-17.09 -87.14,-42.71 -120.84,-76.88 -33.68,-34.16 -60.26,-76.38 -79.79,-126.67 -19.53,-50.28 -29.29,-108.59 -29.29,-174.99 0,-67.37 10.5,-126.93 31.49,-178.65 21,-51.76 49.53,-95.21 85.65,-130.36 36.13,-35.15 78.36,-61.98 126.69,-80.52 48.31,-18.55 100.3,-27.83 155.96,-27.83zm1145.67 215.27c2.93,19.53 4.88,40.77 5.86,63.69 0.98,22.94 1.47,50.05 1.47,81.29l0 440.8 -229.92 0 0 -405.65c0,-14.64 0,-31.49 0,-50.53 0,-19.03 -0.98,-38.32 -2.92,-57.85 -2.93,-40 -15.63,-71.49 -38.08,-94.43 -22.45,-22.96 -56.12,-34.42 -101.03,-34.42 -44.92,0.98 -82.5,23.19 -112.77,66.63 -30.27,43.45 -45.41,114.95 -45.41,214.54l0 361.71 -229.9 0 0 -1083.68 229.9 0 0 426.15 64.44 -93.71c26.37,-17.57 53.95,-30.27 82.75,-38.08 28.8,-7.8 61.73,-11.72 98.84,-11.72 82.99,0 147.68,18.8 194.03,56.39 46.39,37.57 73.97,90.54 82.75,158.88zm2588.61 585.77l-229.92 0 0 -117.14 -58.58 86.38c-22.45,16.6 -51.51,29.29 -87.12,38.08 -35.64,8.78 -73.47,13.18 -113.5,13.18 -53.71,0 -102.01,-9.77 -144.97,-29.29 -42.96,-19.53 -79.34,-46.88 -109.12,-82.02 -29.76,-35.12 -52.46,-76.87 -68.08,-125.2 -15.62,-48.32 -23.43,-101.27 -23.43,-158.88 0,-70.3 10.01,-131.81 30.02,-184.51 20.02,-52.72 46.85,-97.15 80.53,-133.28 33.68,-36.13 73.23,-63.2 118.63,-81.26 45.41,-18.06 92.98,-27.1 142.78,-27.1 32.23,0 65.67,3.66 100.33,10.99 34.64,7.33 61.73,17.32 81.26,30.02l51.26 82 0 -398.32 229.92 0 0 1076.36zm-415.9 -137.65c26.37,0 50.78,-4.39 73.21,-13.18 22.45,-8.78 41.98,-22.7 58.58,-41.73 16.61,-19.04 29.79,-43.94 39.55,-74.7 9.76,-30.76 14.64,-68.57 14.64,-113.49l0 -36.62c0,-41.98 -5.37,-77.37 -16.11,-106.15 -10.74,-28.81 -24.41,-51.99 -41.01,-69.57 -16.6,-17.57 -35.64,-30.27 -57.13,-38.08 -21.45,-7.81 -42.93,-11.72 -64.41,-11.72 -55.66,0 -101.31,20.99 -136.94,62.97 -35.61,41.98 -53.43,105.92 -53.43,191.85 0,77.11 16.85,138.14 50.5,183.04 33.68,44.92 77.86,67.37 132.54,67.37zm1229.14 -266.54c0,20.51 -1.47,44.92 -4.39,73.23l-547.69 0c2.92,37.08 9.27,68.08 19.04,92.98 9.76,24.9 21.73,44.67 35.85,59.32 14.16,14.64 30.52,25.14 49.07,31.49 18.55,6.35 38.56,9.52 60.05,9.52 41.01,0 74.2,-10.25 99.56,-30.76 25.39,-20.5 41.5,-49.31 48.33,-86.42l226.98 0c-21.48,90.81 -66.14,159.37 -133.98,205.76 -67.86,46.38 -149.63,69.57 -245.3,69.57 -54.67,0 -105.7,-8.3 -153.03,-24.9 -47.35,-16.6 -88.6,-41.98 -123.76,-76.17 -35.15,-34.15 -62.71,-76.86 -82.72,-128.13 -20.02,-51.26 -30.03,-111.04 -30.03,-179.38 0,-58.59 9.52,-113.02 28.56,-163.29 19.04,-50.28 46.11,-93.98 81.26,-131.08 35.15,-37.09 77.62,-66.12 127.42,-87.12 49.76,-20.99 105.42,-31.49 166.94,-31.49 62.49,0 117.15,10.99 164.01,32.95 46.86,21.98 86.16,51.24 117.9,87.86 31.7,36.62 55.62,78.84 71.74,126.68 16.11,47.82 24.16,97.62 24.16,149.36zm-388.06 -238.7c-41.01,0 -75.19,13.18 -102.52,39.54 -27.32,26.37 -45.87,68.84 -55.63,127.4l307.52 0c-13.67,-111.28 -63.45,-166.94 -149.36,-166.94zm892.33 642.88l-251.87 0 -306.07 -780.53 254.82 0 180.12 603.34 178.65 -603.34 248.96 0 -304.61 780.53zm2408.33 -801.04c53.7,0 102.03,9.77 145,29.29 42.94,19.53 79.3,46.6 109.1,81.26 29.78,34.67 52.47,76.17 68.1,124.5 15.62,48.31 23.43,101.27 23.43,158.88 0,70.3 -10.01,132.03 -30.03,185.24 -20.01,53.22 -46.86,97.89 -80.55,134 -33.69,36.13 -73.23,63.22 -118.62,81.29 -45.4,18.06 -93,27.1 -142.79,27.1 -32.2,0 -65.64,-3.66 -100.3,-10.99 -34.66,-7.33 -61.75,-17.34 -81.29,-30.02l-51.27 -82.02 0 102.52 -229.9 0 0 -1076.36 229.9 0 0 412.96 58.59 -86.38c22.45,-16.61 51.49,-29.29 87.14,-38.08 35.64,-8.79 73.45,-13.18 113.47,-13.18zm-80.52 663.39c55.62,0 101.27,-21 136.91,-62.98 35.64,-41.98 53.46,-105.93 53.46,-191.84 0,-77.13 -16.85,-138.14 -50.53,-183.04 -33.69,-44.92 -77.87,-67.37 -132.53,-67.37 -26.36,0 -50.77,4.39 -73.22,13.18 -22.47,8.78 -42.24,22.69 -59.32,41.73 -17.09,19.04 -30.27,43.94 -39.55,74.68 -9.27,30.76 -13.91,68.59 -13.91,113.51l0 35.15c0,41.98 5.13,77.35 15.38,106.16 10.25,28.8 23.92,52.23 41.01,70.3 17.1,18.06 36.38,31 57.85,38.81 21.49,7.81 42.96,11.72 64.45,11.72zm886.46 -663.39c12.67,0 23.41,0.49 32.2,1.47 8.79,0.98 17.57,2.45 26.37,4.39l0 185.98c-44.92,-2.92 -83.71,-0.24 -116.42,8.05 -32.7,8.3 -59.8,23.68 -81.29,46.14 -21.48,22.47 -37.09,52.22 -46.86,89.31 -9.76,37.11 -14.64,83.49 -14.64,139.14l0 326.56 -229.9 0 0 -780.53 229.9 0 0 149.36 58.58 -108.36c19.53,-20.51 42.47,-35.89 68.84,-46.14 26.36,-10.25 50.77,-15.38 73.22,-15.38zm496.92 686.82l-35.12 83.46c-28.32,17.57 -58.59,30.52 -90.81,38.81 -32.23,8.3 -66.4,12.46 -102.5,12.46 -33.2,0 -64.93,-4.88 -95.2,-14.65 -30.27,-9.76 -56.87,-24.41 -79.83,-43.94 -22.92,-19.52 -41.22,-43.44 -54.89,-71.74 -13.67,-28.31 -20.51,-61.01 -20.51,-98.12 0,-85.93 36.38,-152.3 109.1,-199.16 72.74,-46.86 178.41,-70.31 317.06,-70.31l49.79 0 0 -13.17c0,-10.75 0,-21.24 0,-31.5 0,-10.22 -0.97,-22.18 -2.92,-35.85 -1.96,-23.43 -11.97,-43.45 -30.03,-60.05 -18.06,-16.6 -44.18,-24.9 -78.35,-24.9 -36.13,0 -63.96,10.5 -83.48,31.49 -19.51,21 -30.73,51.02 -33.67,90.05l-219.66 0c0.98,-44.9 10.74,-84.69 29.29,-119.34 18.53,-34.66 43.43,-63.95 74.19,-87.87 30.75,-23.9 67.12,-41.96 108.62,-54.17 41.47,-12.21 86.39,-18.31 134.23,-18.31 57.85,0 106.89,6.11 147.41,18.31 40.77,12.21 73.72,28.8 99.11,49.79 25.63,20.97 44.67,46.11 57.36,75.4 12.67,29.29 20.47,61.52 23.41,96.66 2.92,36.13 4.39,78.09 4.39,125.93l0 237.25c0,29.29 0.98,58.58 2.93,87.87 1.94,29.27 5.86,65.88 11.72,109.82l-225.53 0 -16.11 -114.21zm-137.65 -23.43c34.17,0 65.17,-12.21 93,-36.62 27.82,-24.41 41.73,-61.03 41.73,-109.85l0 -57.09c-71.28,-5.86 -129.13,0.24 -173.55,18.3 -44.41,18.04 -66.62,50.01 -66.62,95.91 0,29.29 9.77,51.51 29.29,66.63 19.51,15.14 44.9,22.7 76.14,22.7zm1195.47 -448.12c2.93,19.53 4.88,40.77 5.86,63.69 0.98,22.94 1.47,50.05 1.47,81.29l0 440.8 -229.92 0 0 -405.65c0,-14.64 0,-31.49 0,-50.53 0,-19.03 -0.98,-38.32 -2.92,-57.85 -2.93,-40 -15.63,-71.49 -38.08,-94.43 -22.45,-22.96 -56.12,-34.42 -101.03,-34.42 -44.92,0 -82.51,21.96 -112.78,65.91 -30.26,43.94 -45.4,115.68 -45.4,215.27l0 361.71 -229.9 0 0 -780.53 229.9 0 0 123 64.44 -93.71c26.37,-17.57 53.95,-30.27 82.75,-38.08 28.8,-7.8 61.73,-11.72 98.84,-11.72 82.99,0 147.68,18.8 194.03,56.39 46.39,37.57 73.97,90.54 82.75,158.88zm863.07 585.77l-229.92 0 0 -117.14 -58.58 86.38c-22.45,16.6 -51.51,29.29 -87.12,38.08 -35.64,8.78 -73.47,13.18 -113.51,13.18 -53.7,0 -102.01,-9.77 -144.97,-29.29 -42.96,-19.53 -79.33,-46.88 -109.11,-82.02 -29.76,-35.12 -52.46,-76.87 -68.08,-125.2 -15.63,-48.32 -23.43,-101.27 -23.43,-158.88 0,-70.3 10,-131.81 30.02,-184.51 20.02,-52.72 46.84,-97.15 80.53,-133.28 33.68,-36.13 73.23,-63.2 118.63,-81.26 45.4,-18.06 92.98,-27.1 142.78,-27.1 32.21,0 65.66,3.66 100.33,10.99 34.64,7.33 61.73,17.32 81.26,30.02l51.26 82 0 -398.32 229.92 0 0 1076.36zm-415.9 -137.65c26.37,0 50.78,-4.39 73.21,-13.18 22.45,-8.78 41.98,-22.7 58.58,-41.73 16.6,-19.04 29.78,-43.94 39.55,-74.7 9.76,-30.76 14.64,-68.57 14.64,-113.49l0 -36.62c0,-41.98 -5.37,-77.37 -16.11,-106.15 -10.74,-28.81 -24.41,-51.99 -41.01,-69.57 -16.61,-17.57 -35.65,-30.27 -57.13,-38.08 -21.45,-7.81 -42.94,-11.72 -64.41,-11.72 -55.66,0 -101.31,20.99 -136.94,62.97 -35.61,41.98 -53.44,105.92 -53.44,191.85 0,77.11 16.85,138.14 50.5,183.04 33.69,44.92 77.87,67.37 132.55,67.37z"/>
   <path class="fil1" d="M8730.58 9701.54l-120.07 -111.3c43.92,-65.91 74.68,-144.97 93.71,-232.85l-183.04 -57.09c-11.72,60.02 -29.29,114.21 -51.27,159.61l-187.45 -174.26c139.14,-76.15 200.63,-153.78 200.63,-259.21 0,-144.96 -117.14,-235.77 -294.33,-235.77 -193.3,0 -319.26,102.5 -319.26,251.88 0,73.21 30.76,139.11 105.46,216.74 -156.71,87.85 -225.53,177.19 -225.53,306.05 0,164.01 165.48,281.18 391,281.18 131.79,0 248.96,-41.01 342.67,-114.24l123.03 114.24 124.46 -144.97zm-541.83 -755.65c65.88,0 101.03,35.15 101.03,84.95 0,46.86 -32.21,84.92 -133.26,139.11 -62.97,-61.52 -79.08,-90.78 -79.08,-130.33 0,-54.19 41.01,-93.73 111.3,-93.73zm-32.23 721.97c-112.77,0 -183.04,-52.72 -183.04,-127.42 0,-62.95 33.68,-109.82 127.4,-164.01l247.49 231.39c-55.66,39.54 -121.56,60.05 -191.85,60.05zm4693.98 33.68l-120.07 -111.3c43.91,-65.91 74.66,-144.97 93.71,-232.85l-183.04 -57.09c-11.72,60.02 -29.3,114.21 -51.27,159.61l-187.45 -174.26c139.14,-76.15 200.63,-153.78 200.63,-259.21 0,-144.96 -117.15,-235.77 -294.33,-235.77 -193.3,0 -319.26,102.5 -319.26,251.88 0,73.21 30.76,139.11 105.45,216.74 -156.71,87.85 -225.52,177.19 -225.52,306.05 0,164.01 165.47,281.18 391,281.18 131.79,0 248.95,-41.01 342.67,-114.24l123.02 114.24 124.47 -144.97zm-541.83 -755.65c65.88,0 101.03,35.15 101.03,84.95 0,46.86 -32.23,84.92 -133.26,139.11 -62.97,-61.52 -79.09,-90.78 -79.09,-130.33 0,-54.19 41.01,-93.73 111.32,-93.73zm-32.23 721.97c-112.77,0 -183.04,-52.72 -183.04,-127.42 0,-62.95 33.68,-109.82 127.39,-164.01l247.49 231.39c-55.66,39.54 -121.56,60.05 -191.84,60.05z"/>
  </g>
 </g>
</svg>
