<?xml version="1.0" encoding="UTF-8"?>
<!DOCTYPE svg PUBLIC "-//W3C//DTD SVG 1.1//EN" "http://www.w3.org/Graphics/SVG/1.1/DTD/svg11.dtd">
<!-- Creator: CorelDRAW 2021 (64 Bit) -->
<svg xmlns="http://www.w3.org/2000/svg" xml:space="preserve" width="118.514mm" height="51.7431mm" version="1.1" style="shape-rendering:geometricPrecision; text-rendering:geometricPrecision; image-rendering:optimizeQuality; fill-rule:evenodd; clip-rule:evenodd"
viewBox="0 0 3360.35 1467.13"
 xmlns:xlink="http://www.w3.org/1999/xlink"
 xmlns:xodm="http://www.corel.com/coreldraw/odm/2003">
 <defs>
  <style type="text/css">
   <![CDATA[
    .fil1 {fill:black;fill-rule:nonzero}
    .fil0 {fill:#FBB22F;fill-rule:nonzero}
   ]]>
  </style>
 </defs>
 <g id="Camada_x0020_1">
  <metadata id="CorelCorpID_0Corel-Layer"/>
  <g id="_2983502096768">
   <path class="fil0" d="M2625.56 854.69c-33.52,-43.33 -63.75,-91.96 -70.09,-146.37 -6.33,-54.42 17.16,-115.43 66.87,-138.46 43.33,-20.05 97.12,-6.55 133.25,24.67 36.13,31.22 56.67,77.18 67.22,123.75 16.78,-51.43 40.03,-100.74 69.06,-146.41 15.56,-24.49 37.75,-50.5 66.73,-49.18 25.65,1.17 44.97,23.73 56.99,46.41 33.66,63.45 35.52,140.32 17.29,209.79 -19.45,74.14 -85.27,240.16 -172.99,254.33 -89.07,14.38 -187.81,-118.37 -234.33,-178.53z"/>
   <path class="fil1" d="M1375.03 628.23c17.3,0 32.71,2.76 46.21,8.26 13.51,5.51 24.91,13.17 34.23,23.01 9.3,9.84 16.32,21.43 21.04,34.81 4.72,13.37 7.08,28.06 7.08,44.05 0,15.74 -2.36,30.35 -7.08,43.86 -4.72,13.51 -11.74,25.17 -21.04,35.01 -9.32,9.83 -20.73,17.51 -34.23,23.01 -13.5,5.5 -28.9,8.26 -46.21,8.26 -17.31,0 -32.71,-2.75 -46.21,-8.26 -13.51,-5.5 -24.91,-13.18 -34.21,-23.01 -9.31,-9.83 -16.32,-21.5 -21.04,-35.01 -4.72,-13.51 -7.08,-28.11 -7.08,-43.86 0,-15.99 2.36,-30.67 7.08,-44.05 4.72,-13.37 11.74,-24.97 21.04,-34.81 9.31,-9.84 20.7,-17.5 34.21,-23.01 13.51,-5.5 28.9,-8.26 46.21,-8.26zm-636.42 -21.24c-0.52,2.88 -0.79,5.9 -0.79,9.05 0,3.14 0,6.16 0,9.04l0 10.22 42.88 0 0 35.79 -42.88 0 0 171.87 -54.28 0 0 -171.87 -22.41 0 0 -35.79 22.41 0 0 -8.64c0,-3.67 0,-7.68 0,-11.99 0,-4.33 0.26,-8.33 0.79,-12 1.57,-17.83 8.39,-31.67 20.45,-41.5 12.07,-9.83 30.55,-14.74 55.46,-14.74 4.46,0 8.66,0.26 12.58,0.78 3.94,0.52 7.73,1.19 11.4,1.96l0 37.75c-12.84,-2.34 -23.4,-1.83 -31.66,1.58 -8.26,3.4 -12.92,9.57 -13.96,18.48zm262.33 127.04c0,2.61 0,5.44 0,8.46 0,3.02 -0.26,6.36 -0.79,10.03l-149.07 0c0.8,11.01 2.63,20.19 5.51,27.53 2.95,7.34 6.48,13.3 10.69,17.89 4.19,4.59 9.1,7.81 14.61,9.65 5.5,1.83 11.47,2.75 17.76,2.75 11.86,0 21.7,-3.08 29.43,-9.25 7.8,-6.16 12.59,-14.87 14.42,-26.14l54.28 0c-2.63,12.06 -6.95,22.74 -12.99,32.05 -6.03,9.31 -13.36,16.97 -22.02,23.01 -8.65,6.03 -18.43,10.62 -29.31,13.76 -10.88,3.15 -22.48,4.72 -34.8,4.72 -14.42,0 -27.8,-2.22 -40.12,-6.68 -12.32,-4.46 -23.06,-11.22 -32.24,-20.26 -9.18,-9.04 -16.39,-20.45 -21.63,-34.22 -5.24,-13.76 -7.86,-29.82 -7.86,-48.17 0,-16 2.55,-30.82 7.67,-44.45 5.11,-13.63 12.25,-25.36 21.43,-35.2 9.17,-9.84 20.32,-17.5 33.43,-23.01 13.11,-5.5 27.66,-8.26 43.65,-8.26 16,0 30.09,2.82 42.28,8.46 12.2,5.63 22.43,13.3 30.68,23 8.26,9.7 14.49,20.98 18.69,33.83 4.19,12.85 6.29,26.35 6.29,40.52zm-100.5 -67.64c-12.64,0 -23.13,4.12 -31.59,12.39 -8.46,8.26 -13.82,21.04 -16.18,38.35l92.42 0c-1.84,-16.52 -6.43,-29.11 -13.83,-37.76 -7.34,-8.66 -17.63,-12.97 -30.81,-12.97zm165 -110.53c8.91,0 16.12,2.7 21.63,8.07 5.51,5.37 8.26,12.25 8.26,20.65 0,8.63 -2.75,15.59 -8.26,20.83 -5.51,5.25 -12.72,7.87 -21.63,7.87 -8.91,0 -16.12,-2.61 -21.64,-7.87 -5.51,-5.24 -8.26,-12.2 -8.26,-20.83 0,-8.4 2.75,-15.28 8.26,-20.65 5.51,-5.37 12.73,-8.07 21.64,-8.07zm-27.15 287.11l0 -209.23 54.28 0 0 209.23 -54.28 0zm169.52 -75.12c0,3.68 0,6.95 0,9.84 0,2.88 0.13,5.77 0.39,8.65 0.53,4.98 1.38,9.12 2.55,12.4 1.19,3.27 3.29,5.76 6.29,7.46 3.03,1.7 6.96,2.76 11.8,3.14 4.86,0.39 11.09,0.33 18.69,-0.2l0 35.4c-6.03,1.05 -12,1.76 -17.9,2.16 -5.9,0.4 -11.87,0.6 -17.9,0.6 -20.19,0 -34.48,-3.48 -42.87,-10.43 -8.39,-6.94 -13.24,-17.76 -14.55,-32.44 -0.53,-4.72 -0.8,-9.44 -0.8,-14.17 0,-4.72 0,-10.1 0,-16.13l0 -103.04 -30.66 0 0 -35.79 30.66 0 0 -51.52 54.28 0 0 51.52 43.27 0 0 35.79 -43.27 0 0 96.75zm464.87 -139.62c14.17,0 26.94,2.04 38.35,6.1 11.41,4.07 21.17,9.71 29.31,16.92 8.13,7.2 14.55,15.79 19.27,25.76 4.72,9.96 7.6,20.7 8.66,32.25l-53.5 0c-2.61,-15.22 -7.67,-26.16 -15.14,-32.84 -7.47,-6.69 -16.84,-10.02 -28.11,-10.02 -13.9,0 -25.24,5.7 -34.02,17.1 -8.78,11.4 -13.18,29.05 -13.18,52.89 0,25.97 4.4,44.77 13.18,56.45 8.78,11.66 20,17.5 33.63,17.5 10.74,0 19.8,-3.27 27.14,-9.83 7.34,-6.56 12.46,-16.52 15.34,-29.89l54.28 0c-4.46,25.96 -15.67,45.42 -33.63,58.41 -17.96,12.97 -40.05,19.46 -66.26,19.46 -14.17,0 -27.34,-2.29 -39.53,-6.88 -12.19,-4.59 -22.75,-11.41 -31.66,-20.46 -8.92,-9.04 -15.93,-20.32 -21.05,-33.83 -5.11,-13.5 -7.66,-29.3 -7.66,-47.39 0,-17.83 2.75,-33.68 8.26,-47.6 5.5,-13.89 12.98,-25.55 22.42,-34.99 9.44,-9.44 20.52,-16.65 33.23,-21.64 12.72,-4.97 26.28,-7.47 40.7,-7.47zm224.59 0c17.3,0 32.7,2.76 46.21,8.26 13.51,5.51 24.91,13.17 34.22,23.01 9.3,9.84 16.32,21.43 21.04,34.81 4.71,13.37 7.07,28.06 7.07,44.05 0,15.74 -2.36,30.35 -7.07,43.86 -4.72,13.51 -11.74,25.17 -21.04,35.01 -9.31,9.83 -20.72,17.51 -34.22,23.01 -13.51,5.5 -28.9,8.26 -46.21,8.26 -17.31,0 -32.71,-2.75 -46.21,-8.26 -13.51,-5.5 -24.91,-13.18 -34.22,-23.01 -9.31,-9.83 -16.31,-21.5 -21.04,-35.01 -4.72,-13.51 -7.07,-28.11 -7.07,-43.86 0,-15.99 2.36,-30.67 7.07,-44.05 4.73,-13.37 11.73,-24.97 21.04,-34.81 9.31,-9.84 20.71,-17.5 34.22,-23.01 13.5,-5.5 28.9,-8.26 46.21,-8.26zm0 182.1c16.51,0 29.36,-6.36 38.54,-19.07 9.17,-12.72 13.76,-30.35 13.76,-52.91 0,-22.81 -4.59,-40.51 -13.76,-53.09 -9.18,-12.58 -22.03,-18.87 -38.54,-18.87 -16.53,0 -29.37,6.29 -38.55,18.87 -9.18,12.58 -13.77,30.28 -13.77,53.09 0,22.56 4.59,40.19 13.77,52.91 9.17,12.71 22.02,19.07 38.55,19.07zm454.65 -130.18c0.78,5.25 1.31,10.82 1.57,16.71 0.28,5.91 0.4,13.05 0.4,21.44l0 124.67 -54.28 0 0 -108.94c0,-6.03 -0.13,-11.94 -0.4,-17.71 -0.26,-5.76 -0.65,-11.27 -1.17,-16.52 -2.89,-22.29 -14.62,-33.42 -35.21,-33.42 -12.25,0 -21.63,5.44 -28.18,16.31 -6.49,10.89 -9.76,28.52 -9.76,52.9l0 107.37 -54.29 0 0 -108.94c0,-6.03 -0.12,-11.94 -0.39,-17.71 -0.26,-5.76 -0.65,-11.27 -1.18,-16.52 -2.88,-22.29 -14.81,-33.42 -35.79,-33.42 -12.33,0 -21.7,5.44 -28.12,16.31 -6.43,10.89 -9.63,28.52 -9.63,52.9l0 107.37 -54.28 0 0 -209.23 54.28 0 0 31.85 15.33 -25.16c6.03,-4.2 12.59,-7.28 19.67,-9.25 7.09,-1.97 15.34,-2.95 24.78,-2.95 17.31,0 31.27,3.73 41.89,11.22 10.62,7.47 18.03,16.97 22.23,28.5l20.46 -27.52c11.52,-8.13 26.47,-12.2 44.82,-12.2 19.92,0 35.53,5.05 46.8,15.14 11.28,10.09 18.1,22.35 20.46,36.78zm-1549.61 469.99c14.68,0 27.78,2.62 39.33,7.87 11.54,5.23 21.3,12.58 29.29,22.02 8.01,9.44 14.1,20.65 18.3,33.63 4.19,12.98 6.29,27.2 6.29,42.68 0,18.87 -2.7,35.46 -8.07,49.75 -5.37,14.28 -12.65,26.15 -21.82,35.59 -9.18,9.45 -19.87,16.59 -32.05,21.44 -12.19,4.85 -24.98,7.28 -38.35,7.28 -8.65,0 -17.69,-1.06 -27.14,-3.15 -9.44,-2.1 -16.79,-4.98 -22.02,-8.65l-13.76 -21.63 0 105.01 -54.29 0 0 -286.32 54.29 0 0 31.86 15.73 -22.81c6.03,-4.72 13.89,-8.32 23.59,-10.82 9.71,-2.49 19.94,-3.74 30.69,-3.74zm-17.7 182.1c15.73,0 28.78,-5.96 39.13,-17.88 10.35,-11.94 15.53,-30.09 15.53,-54.49 0,-21.49 -4.71,-38.8 -14.16,-51.92 -9.44,-13.11 -22.29,-19.65 -38.55,-19.65 -7.34,0 -14.36,1.24 -21.03,3.73 -6.69,2.48 -12.46,6.48 -17.31,12 -4.85,5.51 -8.72,12.65 -11.6,21.43 -2.89,8.78 -4.32,19.6 -4.32,32.45l0 9.83c0,11.8 1.56,21.83 4.71,30.09 3.14,8.26 7.15,14.95 12,20.06 4.85,5.11 10.43,8.79 16.72,11.01 6.29,2.23 12.58,3.34 18.87,3.34zm240.71 -182.1c17.29,0 32.7,2.76 46.21,8.27 13.5,5.5 24.91,13.17 34.21,23 9.31,9.84 16.33,21.43 21.04,34.81 4.73,13.37 7.09,28.05 7.09,44.05 0,15.74 -2.36,30.35 -7.09,43.86 -4.71,13.51 -11.73,25.17 -21.04,35.01 -9.31,9.84 -20.72,17.49 -34.21,23 -13.51,5.5 -28.92,8.27 -46.21,8.27 -17.31,0 -32.71,-2.76 -46.23,-8.27 -13.5,-5.51 -24.91,-13.17 -34.21,-23 -9.31,-9.84 -16.32,-21.51 -21.04,-35.01 -4.72,-13.51 -7.08,-28.11 -7.08,-43.86 0,-15.99 2.36,-30.67 7.08,-44.05 4.72,-13.38 11.74,-24.97 21.04,-34.81 9.3,-9.83 20.71,-17.5 34.21,-23 13.51,-5.5 28.92,-8.27 46.23,-8.27zm0 182.1c16.51,0 29.36,-6.36 38.54,-19.07 9.17,-12.73 13.76,-30.35 13.76,-52.91 0,-22.81 -4.59,-40.5 -13.76,-53.09 -9.18,-12.58 -22.03,-18.87 -38.54,-18.87 -16.53,0 -29.37,6.29 -38.55,18.87 -9.18,12.59 -13.77,30.28 -13.77,53.09 0,22.56 4.59,40.18 13.77,52.91 9.18,12.71 22.03,19.07 38.55,19.07zm250.53 -181.7c6.03,0 11.14,0.53 15.34,1.57l0 43.66c-22.55,-1.58 -39.47,3.22 -50.73,14.36 -11.28,11.13 -16.92,30.73 -16.92,58.79l0 95.97 -54.28 0 0 -209.24 54.28 0 0 38.16 16.52 -29.11c5.25,-4.72 11.02,-8.27 17.31,-10.63 6.29,-2.34 12.45,-3.53 18.48,-3.53zm340.2 105.41c-2.1,9.18 -3.41,15.67 -3.93,19.47 -0.52,3.79 -0.78,7.14 -0.78,10.03 0,6.01 1.12,10.94 3.34,14.74 2.23,3.8 6.36,5.7 12.39,5.7 5.24,0 10.35,-1.51 15.33,-4.53 4.98,-3.02 9.38,-7.61 13.18,-13.76 3.8,-6.16 6.88,-13.84 9.25,-23.02 2.36,-9.18 3.54,-19.79 3.54,-31.86 0,-17.04 -2.62,-32.18 -7.87,-45.43 -5.25,-13.24 -12.65,-24.38 -22.22,-33.43 -9.57,-9.05 -20.91,-15.86 -34.02,-20.44 -13.11,-4.59 -27.53,-6.89 -43.27,-6.89 -17.05,0 -33.76,3.08 -50.14,9.23 -16.39,6.18 -31.08,15.22 -44.06,27.15 -12.97,11.93 -23.41,26.55 -31.26,43.86 -7.87,17.31 -11.81,36.97 -11.81,58.99 0,18.36 2.69,34.67 8.06,48.97 5.38,14.29 13.11,26.35 23.2,36.19 10.11,9.83 22.22,17.36 36.39,22.61 14.15,5.23 30.02,7.86 47.59,7.86 16.52,0 32.77,-2.35 48.77,-7.08 16,-4.71 30.55,-11.8 43.67,-21.24l12.18 26.75c-17.83,11.8 -36.18,20.18 -55.07,25.18 -18.87,4.96 -36.57,7.47 -53.08,7.47 -17.57,0 -35.01,-2.76 -52.31,-8.27 -17.31,-5.51 -32.91,-14.09 -46.81,-25.76 -13.9,-11.68 -25.17,-26.68 -33.83,-45.03 -8.65,-18.36 -12.98,-40.25 -12.98,-65.68 0,-25.96 4.66,-49.49 13.96,-70.59 9.3,-21.12 21.9,-39.21 37.76,-54.28 15.87,-15.08 34.21,-26.75 55.06,-35.01 20.85,-8.26 42.81,-12.39 65.87,-12.39 22.29,0 42.15,3.54 59.58,10.62 17.45,7.09 32.2,16.73 44.25,28.91 12.06,12.2 21.25,26.49 27.53,42.87 6.29,16.39 9.44,33.76 9.44,52.11 0,19.14 -2.49,35.53 -7.47,49.17 -4.98,13.63 -11.55,24.71 -19.67,33.23 -8.12,8.52 -17.49,14.75 -28.11,18.68 -10.62,3.93 -21.57,5.91 -32.85,5.91 -13.11,0 -24.05,-2.82 -32.84,-8.46 -8.78,-5.63 -14.62,-14.36 -17.5,-26.16l-10.62 21.24c-6.04,4.99 -12.06,8.46 -18.09,10.43 -6.03,1.97 -12.19,2.96 -18.48,2.96 -6.56,0 -13.12,-1.06 -19.67,-3.15 -6.55,-2.1 -12.39,-5.65 -17.51,-10.63 -5.11,-4.98 -9.24,-11.67 -12.39,-20.05 -3.14,-8.39 -4.71,-18.75 -4.71,-31.08 0,-13.63 1.96,-26.41 5.89,-38.34 3.93,-11.93 9.37,-22.35 16.32,-31.27 6.96,-8.91 15.28,-15.99 24.97,-21.24 9.71,-5.24 20.45,-7.86 32.25,-7.86 7.6,0 14.16,1.04 19.67,3.15 5.5,2.09 9.71,4.85 12.59,8.25l5.11 20.85 7.48 -25.17 46.8 0 -18.1 75.52zm-81.4 42.87c7.6,0 13.95,-3.21 19.07,-9.64 5.11,-6.42 8.72,-13.83 10.81,-22.22l4.72 -22.43c2.89,-11.8 2.56,-20.25 -0.98,-25.36 -3.53,-5.11 -8.71,-7.67 -15.54,-7.67 -5.5,0 -10.56,1.51 -15.14,4.53 -4.58,3.02 -8.52,7.07 -11.79,12.19 -3.29,5.12 -5.84,11.15 -7.68,18.09 -1.83,6.95 -2.76,14.23 -2.76,21.83 0,11.28 1.78,19.2 5.31,23.8 3.54,4.59 8.2,6.88 13.98,6.88zm238.33 -221.04c19.66,0 29.5,9.58 29.5,28.72 0,19.14 -9.84,28.7 -29.5,28.7 -19.93,0 -29.89,-9.56 -29.89,-28.7 0,-19.14 9.96,-28.72 29.89,-28.72zm26.74 291.84c0,3.93 -0.05,8.19 -0.2,12.78 -0.13,4.59 -0.32,8.71 -0.59,12.39 -1.31,16.52 -7.21,29.43 -17.7,38.74 -10.47,9.31 -27.78,13.96 -51.91,13.96 -7.6,0 -14.29,-0.39 -20.07,-1.17l0 -38.55c11.8,1.06 20.46,0.14 25.97,-2.74 5.5,-2.89 8.78,-8.4 9.83,-16.52 0.26,-2.89 0.47,-5.91 0.58,-9.05 0.14,-3.14 0.21,-6.16 0.21,-9.04l0 -214.75 53.87 0 0 213.96zm143.96 -219.47c17.3,0 32.7,2.76 46.21,8.27 13.51,5.5 24.91,13.17 34.23,23 9.3,9.84 16.32,21.43 21.03,34.81 4.72,13.37 7.08,28.05 7.08,44.05 0,15.74 -2.36,30.35 -7.08,43.86 -4.72,13.51 -11.73,25.17 -21.03,35.01 -9.32,9.84 -20.72,17.49 -34.23,23 -13.51,5.5 -28.9,8.27 -46.21,8.27 -17.31,0 -32.71,-2.76 -46.21,-8.27 -13.51,-5.51 -24.92,-13.17 -34.22,-23 -9.32,-9.84 -16.33,-21.51 -21.05,-35.01 -4.72,-13.51 -7.08,-28.11 -7.08,-43.86 0,-15.99 2.36,-30.67 7.08,-44.05 4.72,-13.38 11.73,-24.97 21.05,-34.81 9.3,-9.83 20.71,-17.5 34.22,-23 13.5,-5.5 28.9,-8.27 46.21,-8.27zm0 182.1c16.52,0 29.36,-6.36 38.54,-19.07 9.18,-12.73 13.77,-30.35 13.77,-52.91 0,-22.81 -4.59,-40.5 -13.77,-53.09 -9.18,-12.58 -22.03,-18.87 -38.54,-18.87 -16.52,0 -29.37,6.29 -38.55,18.87 -9.17,12.59 -13.76,30.28 -13.76,53.09 0,22.56 4.59,40.18 13.76,52.91 9.18,12.71 22.03,19.07 38.55,19.07zm261.55 1.97l-10.24 22.42c-7.34,4.98 -15.34,8.53 -23.99,10.63 -8.65,2.09 -17.96,3.15 -27.92,3.15 -8.91,0 -17.5,-1.32 -25.76,-3.94 -8.26,-2.62 -15.4,-6.49 -21.43,-11.61 -6.03,-5.11 -10.88,-11.47 -14.55,-19.07 -3.67,-7.62 -5.5,-16.39 -5.5,-26.36 0,-23.07 9.63,-40.84 28.91,-53.29 19.26,-12.45 48.05,-18.69 86.32,-18.69l13.37 0 0 -4.33c0,-3.15 0,-6.29 0,-9.44 0,-3.15 -0.26,-6.56 -0.79,-10.22 -0.78,-7.34 -3.67,-13.36 -8.65,-18.09 -4.97,-4.72 -12.84,-7.07 -23.59,-7.07 -11.02,0 -19.4,3.01 -25.18,9.04 -5.77,6.03 -9.05,14.82 -9.83,26.35l-52.7 0.4c0.51,-11.8 3.07,-22.29 7.66,-31.47 4.59,-9.18 10.89,-16.92 18.88,-23.21 8,-6.29 17.37,-11.08 28.13,-14.35 10.75,-3.29 22.41,-4.93 35,-4.93 14.69,0 27.14,1.51 37.43,4.52 10.29,3.03 18.81,7.28 25.57,12.79 6.68,5.51 11.74,12 15.01,19.47 3.35,7.47 5.38,15.8 6.16,24.97 0.78,9.71 1.19,20.45 1.19,32.26l0 67.64c0,7.87 0.26,15.75 0.78,23.6 0.53,7.87 1.58,17.7 3.15,29.5l-53.49 0 -3.93 -30.68zm-41.3 -1.97c11.01,0 20.52,-3.73 28.52,-11.2 7.99,-7.49 11.99,-18.56 11.99,-33.24l0 -16.91c-21.5,-1.56 -38.93,0.26 -52.31,5.51 -13.37,5.24 -20.05,14.81 -20.05,28.71 0,9.18 2.88,16 8.65,20.45 5.77,4.46 13.51,6.69 23.2,6.69zm239.14 -182.1c17.3,0 32.7,2.76 46.21,8.27 13.51,5.5 24.91,13.17 34.22,23 9.31,9.84 16.33,21.43 21.04,34.81 4.72,13.37 7.08,28.05 7.08,44.05 0,15.74 -2.36,30.35 -7.08,43.86 -4.71,13.51 -11.73,25.17 -21.04,35.01 -9.31,9.84 -20.71,17.49 -34.22,23 -13.51,5.5 -28.91,8.27 -46.21,8.27 -17.32,0 -32.72,-2.76 -46.23,-8.27 -13.51,-5.51 -24.91,-13.17 -34.21,-23 -9.31,-9.84 -16.33,-21.51 -21.05,-35.01 -4.72,-13.51 -7.08,-28.11 -7.08,-43.86 0,-15.99 2.36,-30.67 7.08,-44.05 4.72,-13.38 11.73,-24.97 21.05,-34.81 9.3,-9.83 20.71,-17.5 34.21,-23 13.51,-5.5 28.91,-8.27 46.23,-8.27zm0 182.1c16.52,0 29.36,-6.36 38.54,-19.07 9.18,-12.73 13.77,-30.35 13.77,-52.91 0,-22.81 -4.58,-40.5 -13.77,-53.09 -9.18,-12.58 -22.02,-18.87 -38.54,-18.87 -16.54,0 -29.38,6.29 -38.55,18.87 -9.18,12.59 -13.77,30.28 -13.77,53.09 0,22.56 4.59,40.18 13.77,52.91 9.17,12.71 22.02,19.07 38.55,19.07zm347.28 32.65l-54.28 0 0 -32.24 -15.73 23.2c-6.04,4.45 -13.91,8 -23.61,10.62 -9.7,2.62 -19.92,3.94 -30.68,3.94 -14.68,0 -27.79,-2.63 -39.32,-7.88 -11.55,-5.23 -21.31,-12.58 -29.31,-22.03 -8,-9.44 -14.1,-20.64 -18.29,-33.62 -4.2,-12.98 -6.29,-27.21 -6.29,-42.68 0,-18.88 2.68,-35.46 8.06,-49.76 5.37,-14.29 12.65,-26.22 21.82,-35.78 9.17,-9.58 19.86,-16.73 32.05,-21.45 12.2,-4.72 24.97,-7.08 38.35,-7.08 8.65,0 17.7,1.06 27.14,3.15 9.44,2.1 16.78,4.98 22.03,8.65l13.77 21.63 0 -107.76 54.28 0 0 289.08zm-108.56 -32.65c7.61,0 14.68,-1.24 21.25,-3.73 6.55,-2.49 12.25,-6.49 17.1,-12 4.86,-5.51 8.72,-12.65 11.61,-21.43 2.89,-8.78 4.33,-19.61 4.33,-32.45l0 -10.22c0,-11.8 -1.58,-21.76 -4.73,-29.89 -3.14,-8.12 -7.15,-14.74 -12,-19.86 -4.84,-5.11 -10.42,-8.78 -16.71,-11.01 -6.3,-2.23 -12.59,-3.34 -18.89,-3.34 -15.73,0 -28.76,5.96 -39.13,17.88 -10.36,11.93 -15.54,30.09 -15.54,54.48 0,21.5 4.73,38.81 14.16,51.91 9.44,13.11 22.29,19.66 38.54,19.66zm276.51 1.97l-10.24 22.42c-7.34,4.98 -15.34,8.53 -23.99,10.63 -8.65,2.09 -17.96,3.15 -27.92,3.15 -8.91,0 -17.5,-1.32 -25.77,-3.94 -8.25,-2.62 -15.4,-6.49 -21.43,-11.61 -6.03,-5.11 -10.88,-11.47 -14.55,-19.07 -3.67,-7.62 -5.5,-16.39 -5.5,-26.36 0,-23.07 9.63,-40.84 28.9,-53.29 19.26,-12.45 48.04,-18.69 86.33,-18.69l13.36 0 0 -4.33c0,-3.15 0,-6.29 0,-9.44 0,-3.15 -0.26,-6.56 -0.78,-10.22 -0.78,-7.34 -3.67,-13.36 -8.66,-18.09 -4.98,-4.72 -12.85,-7.07 -23.6,-7.07 -11.01,0 -19.4,3.01 -25.17,9.04 -5.76,6.03 -9.04,14.82 -9.83,26.35l-52.71 0.4c0.52,-11.8 3.08,-22.29 7.67,-31.47 4.59,-9.18 10.89,-16.92 18.88,-23.21 7.99,-6.29 17.37,-11.08 28.12,-14.35 10.76,-3.29 22.43,-4.93 35.01,-4.93 14.69,0 27.14,1.51 37.43,4.52 10.29,3.03 18.81,7.28 25.56,12.79 6.68,5.51 11.74,12 15.01,19.47 3.35,7.47 5.39,15.8 6.17,24.97 0.78,9.71 1.18,20.45 1.18,32.26l0 67.64c0,7.87 0.26,15.75 0.78,23.6 0.53,7.87 1.58,17.7 3.15,29.5l-53.49 0 -3.93 -30.68zm-41.3 -1.97c11.01,0 20.52,-3.73 28.5,-11.2 8,-7.49 12,-18.56 12,-33.24l0 -16.91c-21.49,-1.56 -38.94,0.26 -52.3,5.51 -13.38,5.24 -20.07,14.81 -20.07,28.71 0,9.18 2.89,16 8.66,20.45 5.77,4.46 13.51,6.69 23.21,6.69zm209.63 -42.48c0,3.68 0,6.96 0,9.84 0,2.88 0.13,5.77 0.39,8.65 0.53,4.98 1.39,9.12 2.55,12.4 1.19,3.27 3.29,5.76 6.3,7.46 3.03,1.71 6.95,2.75 11.8,3.14 4.86,0.4 11.08,0.33 18.68,-0.2l0 35.4c-6.02,1.04 -11.98,1.77 -17.89,2.15 -5.89,0.41 -11.86,0.6 -17.89,0.6 -20.19,0 -34.48,-3.48 -42.88,-10.43 -8.39,-6.94 -13.24,-17.76 -14.54,-32.44 -0.53,-4.72 -0.79,-9.44 -0.79,-14.16 0,-4.72 0,-10.1 0,-16.13l0 -103.05 -30.68 0 0 -35.79 30.68 0 0 -51.53 54.28 0 0 51.53 43.27 0 0 35.79 -43.27 0 0 96.75zm272.17 -81.02c0.51,5.25 0.92,10.83 1.17,16.72 0.26,5.9 0.39,13.05 0.39,21.43l0 118 -54.28 0 0 -110.52c0,-4.46 0,-9.11 0,-13.96 0,-4.84 -0.26,-9.9 -0.78,-15.14 -0.78,-11.01 -4.33,-19.93 -10.62,-26.75 -6.29,-6.82 -16.12,-10.22 -29.49,-10.22 -6.56,0 -12.72,1.51 -18.48,4.52 -5.77,3.02 -10.76,7.8 -14.95,14.35 -4.19,6.55 -7.53,14.88 -10.02,24.97 -2.49,10.09 -3.74,22.48 -3.74,37.17l0 95.56 -54.28 0 0 -291.04 54.28 0 0 115.63 16.12 -24.78c7.61,-5.25 15.42,-8.98 23.41,-11.21 7.99,-2.24 16.97,-3.35 26.94,-3.35 22.29,0 39.72,5.18 52.3,15.54 12.58,10.35 19.92,24.71 22.03,43.06zm-1983.76 -398.41c16.52,0 29.37,-6.36 38.55,-19.07 9.18,-12.72 13.76,-30.35 13.76,-52.91 0,-22.81 -4.58,-40.51 -13.76,-53.09 -9.18,-12.58 -22.03,-18.87 -38.55,-18.87 -16.52,0 -29.37,6.29 -38.55,18.87 -9.18,12.58 -13.76,30.28 -13.76,53.09 0,22.56 4.58,40.19 13.76,52.91 9.18,12.71 22.03,19.07 38.55,19.07z"/>
   <path class="fil1" d="M330.64 548.68l165.95 0 0 665.08c0,38.01 -6.33,72.42 -19,103.25 -12.67,30.83 -29.98,57.43 -51.94,79.81 -21.96,22.38 -47.93,39.7 -77.91,51.94 -29.98,12.25 -62.29,18.37 -96.91,18.37 -85.3,0 -148.43,-23.43 -189.39,-70.31 -40.96,-46.87 -61.44,-110.42 -61.44,-190.66l154.56 0c0,35.47 6.55,63.55 19.64,84.25 13.09,20.69 35.68,31.04 67.77,31.04 32.94,0 55.95,-10.14 69.04,-30.41 13.09,-20.27 19.64,-48.14 19.64,-83.61l0 -658.75z"/>
   <path class="fil0" d="M508.28 261.38c15.75,-20.76 24.07,-45.55 24.07,-71.67 0,-32.03 -12.56,-62.06 -35.38,-84.55 -22.81,-22.49 -53.04,-34.63 -85.07,-34.17 -31.05,0.44 -60.3,12.9 -82.36,35.08 -22.07,22.18 -34.37,51.5 -34.65,82.55 -0.24,26.61 8.13,51.84 24.21,72.96 26.1,34.27 40.48,76.26 40.48,118.22l0 45.91c0,20.37 16.57,36.94 36.94,36.94l34.36 0c20.36,0 36.94,-16.57 36.94,-36.94l0 -45.91c0,-42.43 13.89,-83.38 40.47,-118.42zm-169.93 -60.22c-0.59,-3.98 -0.88,-8.08 -0.84,-12.16 0.04,-4.2 -3.34,-7.64 -7.54,-7.68 -4.17,-0.04 -7.64,3.34 -7.68,7.54 -0.04,4.88 0.29,9.77 1.01,14.55 0.57,3.78 3.81,6.49 7.52,6.49 0.38,0 0.76,-0.03 1.14,-0.09 4.16,-0.62 7.02,-4.5 6.4,-8.65zm44.8 115.61c0.79,0 1.59,-0.12 2.38,-0.38 4,-1.31 6.16,-5.62 4.85,-9.61 -8.44,-25.65 -21.01,-49.55 -37.37,-71.04 -2.7,-3.55 -5.1,-7.33 -7.12,-11.25 -1.93,-3.73 -6.52,-5.19 -10.26,-3.26 -3.73,1.93 -5.19,6.52 -3.26,10.26 2.43,4.69 5.3,9.23 8.53,13.48 15.33,20.13 27.11,42.53 35.02,66.56 1.05,3.2 4.03,5.23 7.23,5.23zm110.45 -101c-3.86,-1.67 -8.34,0.12 -10.01,3.98 -2.41,5.6 -5.53,10.94 -9.27,15.88 -2.54,3.35 -1.88,8.12 1.46,10.67 1.38,1.04 2.99,1.54 4.59,1.54 2.3,0 4.58,-1.04 6.07,-3.01 4.48,-5.91 8.23,-12.32 11.13,-19.05 1.66,-3.86 -0.12,-8.33 -3.98,-10zm-79.98 -102.17c41.96,0 76.11,34.14 76.11,76.11 0,2.38 -0.11,4.79 -0.33,7.15 -0.38,4.19 2.7,7.89 6.89,8.27 0.23,0.02 0.47,0.03 0.7,0.03 3.89,0 7.2,-2.96 7.56,-6.91 0.26,-2.82 0.39,-5.69 0.39,-8.54 0,-50.36 -40.97,-91.33 -91.33,-91.33 -4.2,0 -7.61,3.41 -7.61,7.61 0,4.2 3.41,7.61 7.61,7.61zm0 -55.75c4.2,0 7.61,-3.41 7.61,-7.61l0 -42.62c0,-4.2 -3.41,-7.61 -7.61,-7.61 -4.2,0 -7.61,3.41 -7.61,7.61l0 42.62c0,4.2 3.41,7.61 7.61,7.61zm-77 15.04c1.41,2.44 3.97,3.81 6.6,3.81 1.29,0 2.6,-0.33 3.79,-1.02 3.64,-2.1 4.89,-6.76 2.79,-10.4l-21.3 -36.9c-2.11,-3.64 -6.76,-4.89 -10.39,-2.78 -3.64,2.1 -4.89,6.76 -2.79,10.39l21.3 36.9zm239.66 203.27l-36.9 -21.31c-3.64,-2.1 -8.3,-0.85 -10.39,2.79 -2.1,3.64 -0.86,8.3 2.78,10.39l36.9 21.31c1.2,0.69 2.51,1.02 3.8,1.02 2.63,0 5.19,-1.37 6.6,-3.81 2.1,-3.63 0.85,-8.29 -2.79,-10.39zm-325.32 -170.24l36.9 21.31c1.19,0.69 2.5,1.02 3.8,1.02 2.63,0 5.19,-1.37 6.6,-3.81 2.1,-3.64 0.85,-8.3 -2.79,-10.4l-36.89 -21.3c-3.64,-2.11 -8.3,-0.86 -10.4,2.78 -2.11,3.64 -0.86,8.29 2.78,10.39zm346.09 77.51l-42.63 0c-4.2,0 -7.61,3.41 -7.61,7.61 0,4.2 3.41,7.61 7.61,7.61l42.63 0c4.2,0 7.61,-3.41 7.61,-7.61 0,-4.2 -3.41,-7.61 -7.61,-7.61zm-316.62 7.61c0,-4.2 -3.41,-7.61 -7.62,-7.61l-42.62 0c-4.21,0 -7.61,3.41 -7.61,7.61 0,4.2 3.4,7.61 7.61,7.61l42.62 0c4.21,0 7.62,-3.41 7.62,-7.61zm255.15 -62.8c1.29,0 2.6,-0.33 3.8,-1.02l36.9 -21.31c3.64,-2.1 4.89,-6.75 2.79,-10.39 -2.1,-3.64 -6.76,-4.89 -10.4,-2.78l-36.9 21.3c-3.64,2.1 -4.89,6.76 -2.78,10.4 1.4,2.44 3.97,3.81 6.6,3.81zm-247.72 126.61l-36.9 21.31c-3.64,2.1 -4.89,6.76 -2.78,10.39 1.41,2.44 3.96,3.81 6.59,3.81 1.3,0 2.61,-0.33 3.81,-1.02l36.89 -21.31c3.64,-2.1 4.89,-6.75 2.79,-10.39 -2.1,-3.64 -6.76,-4.89 -10.39,-2.79zm192.36 -179.18c1.2,0.69 2.51,1.02 3.8,1.02 2.63,0 5.19,-1.37 6.6,-3.81l21.3 -36.9c2.1,-3.63 0.86,-8.3 -2.78,-10.39 -3.64,-2.1 -8.3,-0.85 -10.4,2.78l-21.3 36.9c-2.1,3.64 -0.85,8.3 2.78,10.4zm-149.01 176.68c-14.01,-18.4 -21.31,-40.4 -21.09,-63.6 0.5,-55.75 46.26,-101.75 102,-102.54 27.96,-0.37 54.29,10.19 74.17,29.79 19.89,19.61 30.85,45.78 30.85,73.71 0,22.77 -7.26,44.38 -20.98,62.48 -28,36.93 -43.08,80 -43.7,124.75l-77.67 0c-0.64,-44.32 -16.05,-88.46 -43.57,-124.59zm43.59 168.2l0 -6.16 77.78 8.91 0 2.4c0,1.27 -0.13,2.51 -0.34,3.72l-77.45 -8.87zm0 -21.48l0 -6.91 77.78 0 0 15.82 -77.78 -8.91zm21.71 48.35c-8.18,0 -15.31,-4.54 -19.01,-11.24l65.52 7.51c-3.47,2.35 -7.66,3.73 -12.16,3.73l-34.36 0z"/>
  </g>
 </g>
</svg>
