<?xml version="1.0" encoding="UTF-8"?>
<!DOCTYPE svg PUBLIC "-//W3C//DTD SVG 1.1//EN" "http://www.w3.org/Graphics/SVG/1.1/DTD/svg11.dtd">
<!-- Creator: CorelDRAW 2021 (64 Bit) -->
<svg xmlns="http://www.w3.org/2000/svg" xml:space="preserve" width="118.514mm" height="51.7431mm" version="1.1" style="shape-rendering:geometricPrecision; text-rendering:geometricPrecision; image-rendering:optimizeQuality; fill-rule:evenodd; clip-rule:evenodd"
viewBox="0 0 12871.53 5619.7"
 xmlns:xlink="http://www.w3.org/1999/xlink"
 xmlns:xodm="http://www.corel.com/coreldraw/odm/2003">
 <defs>
  <style type="text/css">
   <![CDATA[
    .fil0 {fill:#FBB22F;fill-rule:nonzero}
    .fil1 {fill:white;fill-rule:nonzero}
   ]]>
  </style>
 </defs>
 <g id="Camada_x0020_1">
  <metadata id="CorelCorpID_0Corel-Layer"/>
  <g id="_2983585198848">
   <path class="fil0" d="M10057 3273.82c-128.41,-165.97 -244.2,-352.24 -268.46,-560.68 -24.23,-208.44 65.72,-442.16 256.15,-530.35 165.97,-76.82 372.03,-25.1 510.4,94.48 138.4,119.58 217.06,295.63 257.47,474.03 64.27,-197.01 153.33,-385.89 264.53,-560.8 59.61,-93.79 144.6,-193.43 255.61,-188.38 98.24,4.46 172.26,90.88 218.3,177.76 128.93,243.04 136.06,537.5 66.24,803.59 -74.52,284 -326.61,919.91 -662.64,974.2 -341.17,55.1 -719.37,-453.39 -897.6,-683.85z"/>
   <path class="fil1" d="M5266.92 2406.4c66.28,0 125.29,10.56 176.99,31.64 51.73,21.1 95.43,50.46 131.12,88.14 35.62,37.69 62.51,82.1 80.58,133.33 18.08,51.22 27.11,107.47 27.11,168.71 0,60.3 -9.03,116.25 -27.11,167.98 -18.06,51.73 -44.95,96.42 -80.58,134.09 -35.69,37.67 -79.39,67.05 -131.12,88.14 -51.7,21.08 -110.7,31.63 -176.99,31.63 -66.31,0 -125.29,-10.55 -177.02,-31.63 -51.75,-21.08 -95.4,-50.47 -131.06,-88.14 -35.66,-37.67 -62.51,-82.36 -80.61,-134.09 -18.06,-51.73 -27.11,-107.68 -27.11,-167.98 0,-61.24 9.05,-117.49 27.11,-168.71 18.09,-51.23 44.95,-95.64 80.61,-133.33 35.66,-37.68 79.31,-67.03 131.06,-88.14 51.73,-21.08 110.71,-31.64 177.02,-31.64zm-2437.77 -81.35c-2.01,11.05 -3.04,22.6 -3.04,34.66 0,12.04 0,23.58 0,34.65l0 39.14 164.24 0 0 137.1 -164.24 0 0 658.35 -207.9 0 0 -658.35 -85.84 0 0 -137.1 85.84 0 0 -33.1c0,-14.04 0,-29.41 0,-45.93 0,-16.58 1,-31.91 3.02,-45.95 6.03,-68.31 32.14,-121.3 78.33,-158.98 46.23,-37.64 117,-56.48 212.44,-56.48 17.08,0 33.16,0.99 48.19,3 15.07,2.01 29.63,4.54 43.68,7.53l0 144.61c-49.2,-8.97 -89.62,-7.02 -121.26,6.07 -31.63,13.02 -49.48,36.66 -53.46,70.79zm1004.84 486.62c0,10.01 0,20.85 0,32.39 0,11.56 -1,24.35 -3.01,38.41l-570.99 0c3.05,42.18 10.07,77.32 21.11,105.45 11.3,28.12 24.84,50.95 40.95,68.52 16.04,17.59 34.87,29.9 55.98,36.95 21.08,6.99 43.94,10.52 68.04,10.52 45.43,0 83.13,-11.78 112.75,-35.42 29.88,-23.59 48.22,-56.98 55.22,-100.14l207.92 0c-10.06,46.18 -26.62,87.1 -49.74,122.76 -23.09,35.66 -51.19,65.01 -84.34,88.14 -33.15,23.09 -70.58,40.66 -112.26,52.71 -41.68,12.08 -86.09,18.08 -133.31,18.08 -55.24,0 -106.48,-8.51 -153.69,-25.59 -47.19,-17.08 -88.34,-42.97 -123.51,-77.61 -35.17,-34.65 -62.78,-78.35 -82.87,-131.07 -20.07,-52.71 -30.11,-114.21 -30.11,-184.52 0,-61.28 9.77,-118.03 29.38,-170.25 19.56,-52.22 46.93,-97.14 82.1,-134.83 35.11,-37.68 77.82,-67.03 128.05,-88.14 50.23,-21.08 105.96,-31.64 167.21,-31.64 61.28,0 115.25,10.78 161.95,32.41 46.72,21.57 85.9,50.96 117.5,88.1 31.65,37.15 55.49,80.37 71.59,129.57 16.04,49.21 24.09,100.94 24.09,155.19zm-384.94 -259.11c-48.43,0 -88.59,15.79 -121.02,47.44 -32.39,31.64 -52.95,80.58 -61.97,146.88l354 0c-7.04,-63.29 -24.61,-111.51 -52.99,-144.63 -28.12,-33.16 -67.52,-49.69 -118.01,-49.69zm632.01 -423.36c34.14,0 61.73,10.33 82.85,30.91 21.1,20.57 31.63,46.93 31.63,79.11 0,33.07 -10.52,59.72 -31.63,79.79 -21.11,20.13 -48.71,30.14 -82.85,30.14 -34.14,0 -61.77,-10.01 -82.88,-30.14 -21.1,-20.07 -31.63,-46.72 -31.63,-79.79 0,-32.18 10.52,-58.54 31.63,-79.11 21.11,-20.58 48.74,-30.91 82.88,-30.91zm-103.98 1099.74l0 -801.44 207.93 0 0 801.44 -207.93 0zm649.34 -287.75c0,14.09 0,26.62 0,37.69 0,11.05 0.49,22.09 1.5,33.13 2.03,19.07 5.29,34.92 9.77,47.51 4.54,12.51 12.59,22.06 24.1,28.59 11.59,6.53 26.65,10.56 45.2,12.04 18.6,1.5 42.47,1.27 71.59,-0.75l0 135.61c-23.11,4.01 -45.95,6.73 -68.55,8.27 -22.6,1.54 -45.46,2.29 -68.55,2.29 -77.32,0 -132.07,-13.34 -164.19,-39.97 -32.15,-26.58 -50.72,-68.03 -55.73,-124.25 -2.03,-18.09 -3.07,-36.18 -3.07,-54.26 0,-18.06 0,-38.68 0,-61.8l0 -394.69 -117.46 0 0 -137.1 117.46 0 0 -197.35 207.93 0 0 197.35 165.75 0 0 137.1 -165.75 0 0 370.6zm1780.66 -534.8c54.26,0 103.2,7.8 146.91,23.35 43.7,15.59 81.09,37.18 112.26,64.82 31.14,27.6 55.73,60.49 73.81,98.66 18.06,38.15 29.11,79.31 33.16,123.53l-204.93 0c-10.01,-58.29 -29.37,-100.19 -58.01,-125.8 -28.61,-25.62 -64.5,-38.39 -107.68,-38.39 -53.23,0 -96.67,21.82 -130.32,65.5 -33.65,43.68 -50.49,111.26 -50.49,202.61 0,99.46 16.85,171.5 50.49,216.22 33.65,44.68 76.6,67.02 128.82,67.02 41.15,0 75.83,-12.53 103.95,-37.67 28.1,-25.11 47.73,-63.26 58.75,-114.47l207.9 0c-17.07,99.43 -60.01,173.99 -128.82,223.73 -68.78,49.67 -153.41,74.54 -253.82,74.54 -54.26,0 -104.73,-8.76 -151.42,-26.34 -46.68,-17.59 -87.14,-43.7 -121.27,-78.36 -34.16,-34.65 -61.02,-77.84 -80.62,-129.57 -19.56,-51.7 -29.33,-112.22 -29.33,-181.53 0,-68.31 10.52,-129.03 31.63,-182.31 21.08,-53.2 49.72,-97.88 85.87,-134.03 36.14,-36.14 78.59,-63.77 127.3,-82.89 48.71,-19.04 100.67,-28.62 155.88,-28.62zm860.26 0c66.28,0 125.26,10.56 176.99,31.64 51.73,21.1 95.41,50.46 131.09,88.14 35.63,37.69 62.51,82.1 80.61,133.33 18.05,51.22 27.09,107.47 27.09,168.71 0,60.3 -9.04,116.25 -27.09,167.98 -18.09,51.73 -44.97,96.42 -80.61,134.09 -35.68,37.67 -79.36,67.05 -131.09,88.14 -51.73,21.08 -110.7,31.63 -176.99,31.63 -66.31,0 -125.31,-10.55 -177.02,-31.63 -51.75,-21.08 -95.43,-50.47 -131.09,-88.14 -35.66,-37.67 -62.48,-82.36 -80.6,-134.09 -18.06,-51.73 -27.09,-107.68 -27.09,-167.98 0,-61.24 9.03,-117.49 27.09,-168.71 18.12,-51.23 44.94,-95.64 80.6,-133.33 35.66,-37.68 79.34,-67.03 131.09,-88.14 51.71,-21.08 110.71,-31.64 177.02,-31.64zm0 697.51c63.23,0 112.46,-24.35 147.63,-73.04 35.13,-48.73 52.71,-116.25 52.71,-202.66 0,-87.36 -17.57,-155.16 -52.71,-203.36 -35.17,-48.19 -84.4,-72.29 -147.63,-72.29 -63.32,0 -112.52,24.1 -147.65,72.29 -35.17,48.2 -52.74,115.99 -52.74,203.36 0,86.41 17.57,153.93 52.74,202.66 35.13,48.69 84.33,73.04 147.65,73.04zm1741.51 -498.64c3,20.1 5.01,41.43 6,64.01 1.05,22.62 1.52,49.97 1.52,82.12l0 477.54 -207.9 0 0 -417.27c0,-23.09 -0.5,-45.73 -1.53,-67.83 -0.98,-22.06 -2.5,-43.16 -4.49,-63.26 -11.07,-85.37 -56.01,-128.02 -134.86,-128.02 -46.93,0 -82.85,20.82 -107.95,62.48 -24.87,41.69 -37.38,109.24 -37.38,202.64l0 411.25 -207.95 0 0 -417.27c0,-23.09 -0.47,-45.73 -1.5,-67.83 -0.98,-22.06 -2.51,-43.16 -4.52,-63.26 -11.05,-85.37 -56.74,-128.02 -137.07,-128.02 -47.21,0 -83.11,20.82 -107.72,62.48 -24.61,41.69 -36.89,109.24 -36.89,202.64l0 411.25 -207.93 0 0 -801.44 207.93 0 0 122.01 58.72 -96.39c23.09,-16.1 48.22,-27.89 75.33,-35.42 27.14,-7.54 58.75,-11.31 94.9,-11.31 66.31,0 119.78,14.29 160.45,42.97 40.68,28.61 69.06,65.01 85.14,109.18l78.36 -105.43c44.14,-31.16 101.4,-46.72 171.7,-46.72 76.32,0 136.1,19.35 179.26,58.01 43.23,38.66 69.34,85.6 78.38,140.86zm-5935.67 1800.24c56.23,0 106.42,10.04 150.65,30.16 44.19,20.05 81.59,48.2 112.2,84.34 30.68,36.17 54,79.1 70.11,128.8 16.04,49.71 24.1,104.2 24.1,163.47 0,72.29 -10.33,135.81 -30.91,190.56 -20.57,54.72 -48.46,100.18 -83.6,136.32 -35.17,36.2 -76.11,63.55 -122.78,82.13 -46.7,18.57 -95.67,27.89 -146.91,27.89 -33.15,0 -67.75,-4.05 -103.95,-12.06 -36.14,-8.05 -64.3,-19.09 -84.33,-33.15l-52.72 -82.85 0 402.22 -207.95 0 0 -1096.74 207.95 0 0 122.04 60.24 -87.39c23.09,-18.09 53.21,-31.89 90.35,-41.43 37.21,-9.52 76.37,-14.33 117.55,-14.33zm-67.8 697.51c60.24,0 110.25,-22.83 149.9,-68.5 39.66,-45.75 59.5,-115.25 59.5,-208.7 0,-82.32 -18.03,-148.63 -54.23,-198.87 -36.14,-50.2 -85.38,-75.28 -147.65,-75.28 -28.1,0 -54.99,4.75 -80.55,14.29 -25.64,9.51 -47.73,24.84 -66.31,45.95 -18.57,21.1 -33.39,48.45 -44.43,82.09 -11.07,33.62 -16.56,75.08 -16.56,124.31l0 37.64c0,45.2 5.98,83.62 18.04,115.24 12.04,31.64 27.37,57.26 45.95,76.84 18.57,19.58 39.94,33.67 64.06,42.18 24.1,8.54 48.2,12.79 72.29,12.79zm922.03 -697.51c66.23,0 125.27,10.58 177,31.66 51.7,21.08 95.4,50.44 131.06,88.1 35.66,37.7 62.55,82.1 80.58,133.34 18.12,51.22 27.14,107.46 27.14,168.71 0,60.3 -9.03,116.25 -27.14,167.98 -18.03,51.73 -44.92,96.42 -80.58,134.11 -35.66,37.68 -79.36,67.01 -131.06,88.11 -51.73,21.08 -110.77,31.66 -177,31.66 -66.31,0 -125.31,-10.58 -177.06,-31.66 -51.71,-21.1 -95.41,-50.44 -131.04,-88.11 -35.66,-37.69 -62.51,-82.38 -80.61,-134.11 -18.06,-51.73 -27.11,-107.68 -27.11,-167.98 0,-61.25 9.05,-117.49 27.11,-168.71 18.09,-51.24 44.95,-95.64 80.61,-133.34 35.62,-37.67 79.33,-67.02 131.04,-88.1 51.75,-21.08 110.76,-31.66 177.06,-31.66zm0 697.51c63.24,0 112.46,-24.35 147.63,-73.04 35.11,-48.74 52.71,-116.25 52.71,-202.66 0,-87.36 -17.59,-155.14 -52.71,-203.36 -35.17,-48.2 -84.39,-72.29 -147.63,-72.29 -63.31,0 -112.51,24.09 -147.67,72.29 -35.17,48.22 -52.74,115.99 -52.74,203.36 0,86.41 17.57,153.92 52.74,202.66 35.17,48.69 84.37,73.04 147.67,73.04zm959.61 -695.99c23.1,0 42.68,2.02 58.76,6.02l0 167.23c-86.39,-6.04 -151.17,12.34 -194.33,55.01 -43.22,42.65 -64.81,117.72 -64.81,225.19l0 367.59 -207.91 0 0 -801.46 207.91 0 0 146.16 63.29 -111.51c20.09,-18.09 42.2,-31.66 66.31,-40.72 24.1,-8.98 47.68,-13.52 70.79,-13.52zm1303.1 403.75c-8.03,35.17 -13.05,60.02 -15.06,74.59 -1.99,14.52 -3,27.35 -3,38.41 0,23.04 4.29,41.9 12.8,56.48 8.54,14.55 24.37,21.85 47.47,21.85 20.07,0 39.65,-5.8 58.71,-17.33 19.09,-11.56 35.92,-29.15 50.49,-52.71 14.55,-23.61 26.37,-53 35.43,-88.17 9.03,-35.16 13.54,-75.8 13.54,-122.03 0,-65.27 -10.04,-123.27 -30.14,-174 -20.09,-50.7 -48.45,-93.39 -85.12,-128.04 -36.66,-34.66 -80.08,-60.77 -130.31,-78.31 -50.21,-17.59 -105.45,-26.39 -165.72,-26.39 -65.29,0 -129.31,11.82 -192.05,35.36 -62.8,23.67 -119.07,58.29 -168.77,103.98 -49.69,45.71 -89.66,101.7 -119.73,167.98 -30.16,66.31 -45.24,141.59 -45.24,225.96 0,70.31 10.3,132.82 30.89,187.57 20.61,54.73 50.21,100.94 88.87,138.63 38.71,37.64 85.12,66.51 139.38,86.61 54.21,20.05 114.99,30.11 182.28,30.11 63.26,0 125.52,-9 186.79,-27.12 61.28,-18.05 117,-45.2 167.27,-81.35l46.67 102.46c-68.31,45.2 -138.59,77.3 -210.94,96.43 -72.29,19.02 -140.09,28.62 -203.34,28.62 -67.32,0 -134.11,-10.58 -200.36,-31.66 -66.31,-21.1 -126.06,-53.98 -179.29,-98.66 -53.23,-44.74 -96.41,-102.2 -129.57,-172.5 -33.13,-70.33 -49.72,-154.16 -49.72,-251.6 0,-99.44 17.83,-189.55 53.49,-270.39 35.63,-80.88 83.88,-150.18 144.63,-207.9 60.79,-57.77 131.05,-102.45 210.92,-134.11 79.86,-31.64 163.97,-47.45 252.33,-47.45 85.38,0 161.43,13.58 228.21,40.66 66.83,27.14 123.32,64.07 169.5,110.74 46.21,46.72 81.38,101.45 105.47,164.19 24.1,62.8 36.16,129.31 36.16,199.61 0,73.33 -9.55,136.1 -28.62,188.35 -19.09,52.22 -44.23,94.66 -75.36,127.3 -31.12,32.64 -66.98,56.5 -107.68,71.54 -40.66,15.04 -82.62,22.63 -125.81,22.63 -50.2,0 -92.13,-10.82 -125.8,-32.41 -33.61,-21.57 -55.99,-55.01 -67.02,-100.21l-40.66 81.35c-23.12,19.13 -46.21,32.41 -69.3,39.95 -23.09,7.56 -46.7,11.33 -70.79,11.33 -25.13,0 -50.24,-4.05 -75.34,-12.06 -25.1,-8.05 -47.47,-21.65 -67.05,-40.71 -19.56,-19.09 -35.4,-44.69 -47.47,-76.81 -12.04,-32.15 -18.04,-71.83 -18.04,-119.04 0,-52.2 7.52,-101.17 22.58,-146.86 15.06,-45.71 35.88,-85.63 62.51,-119.78 26.65,-34.14 58.52,-61.25 95.66,-81.35 37.19,-20.08 78.34,-30.12 123.54,-30.12 29.13,0 54.25,3.98 75.33,12.06 21.08,8.02 37.18,18.57 48.22,31.6l19.58 79.85 28.64 -96.41 179.26 0 -69.32 289.27zm-311.79 164.19c29.1,0 53.42,-12.31 73.04,-36.92 19.58,-24.59 33.39,-52.97 41.41,-85.09l18.08 -85.91c11.07,-45.18 9.81,-77.56 -3.77,-97.14 -13.52,-19.58 -33.36,-29.39 -59.52,-29.39 -21.06,0 -40.43,5.8 -58.01,17.33 -17.56,11.57 -32.64,27.1 -45.15,46.7 -12.59,19.61 -22.36,42.7 -29.41,69.3 -7.02,26.62 -10.56,54.49 -10.56,83.62 0,43.19 6.82,73.56 20.33,91.15 13.58,17.57 31.4,26.34 53.54,26.34zm912.91 -846.66c75.31,0 112.98,36.69 112.98,110.02 0,73.3 -37.68,109.93 -112.98,109.93 -76.34,0 -114.51,-36.63 -114.51,-109.93 0,-73.33 38.16,-110.02 114.51,-110.02zm102.41 1117.86c0,15.06 -0.21,31.37 -0.75,48.96 -0.49,17.57 -1.24,33.36 -2.25,47.45 -5.01,63.29 -27.63,112.75 -67.8,148.38 -40.12,35.66 -106.42,53.46 -198.84,53.46 -29.13,0 -54.73,-1.5 -76.86,-4.49l0 -147.66c45.2,4.05 78.36,0.52 99.46,-10.5 21.08,-11.07 33.64,-32.17 37.64,-63.29 1,-11.07 1.78,-22.62 2.24,-34.68 0.54,-12.04 0.8,-23.58 0.8,-34.61l0 -822.57 206.35 0 0 819.55zm551.42 -840.66c66.28,0 125.26,10.58 176.99,31.66 51.73,21.08 95.41,50.44 131.1,88.1 35.62,37.7 62.5,82.1 80.57,133.34 18.09,51.22 27.12,107.46 27.12,168.71 0,60.3 -9.03,116.25 -27.12,167.98 -18.06,51.73 -44.94,96.42 -80.57,134.11 -35.69,37.68 -79.37,67.01 -131.1,88.11 -51.73,21.08 -110.7,31.66 -176.99,31.66 -66.31,0 -125.31,-10.58 -177.01,-31.66 -51.73,-21.1 -95.44,-50.44 -131.07,-88.11 -35.69,-37.69 -62.55,-82.38 -80.63,-134.11 -18.06,-51.73 -27.12,-107.68 -27.12,-167.98 0,-61.25 9.06,-117.49 27.12,-168.71 18.08,-51.24 44.94,-95.64 80.63,-133.34 35.62,-37.67 79.34,-67.02 131.07,-88.1 51.7,-21.08 110.7,-31.66 177.01,-31.66zm0 697.51c63.26,0 112.46,-24.35 147.63,-73.04 35.17,-48.74 52.74,-116.25 52.74,-202.66 0,-87.36 -17.57,-155.14 -52.74,-203.36 -35.17,-48.2 -84.37,-72.29 -147.63,-72.29 -63.29,0 -112.52,24.09 -147.67,72.29 -35.12,48.22 -52.72,115.99 -52.72,203.36 0,86.41 17.59,153.92 52.72,202.66 35.16,48.69 84.39,73.04 147.67,73.04zm1001.83 7.54l-39.22 85.87c-28.1,19.06 -58.75,32.66 -91.9,40.71 -33.13,8 -68.78,12.06 -106.95,12.06 -34.12,0 -67.02,-5.04 -98.66,-15.07 -31.63,-10.04 -59.01,-24.87 -82.1,-44.45 -23.09,-19.58 -41.66,-43.93 -55.75,-73.04 -14.06,-29.18 -21.08,-62.8 -21.08,-100.96 0,-88.39 36.89,-156.43 110.74,-204.13 73.79,-47.7 184.04,-71.57 330.66,-71.57l51.21 0 0 -16.58c0,-12.06 0,-24.1 0,-36.14 0,-12.06 -1,-25.11 -3.02,-39.16 -2.99,-28.1 -14.05,-51.19 -33.15,-69.3 -19.04,-18.06 -49.2,-27.09 -90.35,-27.09 -42.22,0 -74.31,11.52 -96.44,34.62 -22.09,23.09 -34.66,56.76 -37.64,100.93l-201.86 1.54c1.95,-45.2 11.76,-85.37 29.33,-120.53 17.59,-35.17 41.69,-64.82 72.31,-88.91 30.65,-24.1 66.54,-42.42 107.75,-54.96 41.17,-12.6 85.85,-18.87 134.05,-18.87 56.27,0 103.95,5.78 143.37,17.31 39.42,11.59 72.06,27.89 97.93,48.99 25.6,21.1 44.95,45.95 57.49,74.57 12.83,28.63 20.61,60.53 23.61,95.64 2.99,37.2 4.54,78.35 4.54,123.55l0 259.09c0,30.16 0.98,60.32 2.99,90.39 2.02,30.16 6.04,67.8 12.06,113.01l-204.88 0 -15.04 -117.51zm-158.21 -7.54c42.18,0 78.59,-14.29 109.24,-42.9 30.59,-28.67 45.92,-71.08 45.92,-127.33l0 -64.78c-82.35,-5.98 -149.12,0.98 -200.36,21.1 -51.22,20.08 -76.81,56.74 -76.81,109.97 0,35.17 11.01,61.28 33.13,78.33 22.11,17.08 51.73,25.62 88.88,25.62zm916.01 -697.51c66.26,0 125.26,10.58 176.99,31.66 51.73,21.08 95.41,50.44 131.07,88.1 35.66,37.7 62.55,82.1 80.6,133.34 18.09,51.22 27.12,107.46 27.12,168.71 0,60.3 -9.03,116.25 -27.12,167.98 -18.05,51.73 -44.94,96.42 -80.6,134.11 -35.66,37.68 -79.34,67.01 -131.07,88.11 -51.73,21.08 -110.73,31.66 -176.99,31.66 -66.33,0 -125.33,-10.58 -177.06,-31.66 -51.73,-21.1 -95.41,-50.44 -131.05,-88.11 -35.68,-37.69 -62.54,-82.38 -80.62,-134.11 -18.06,-51.73 -27.12,-107.68 -27.12,-167.98 0,-61.25 9.06,-117.49 27.12,-168.71 18.08,-51.24 44.94,-95.64 80.62,-133.34 35.63,-37.67 79.32,-67.02 131.05,-88.1 51.73,-21.08 110.74,-31.66 177.06,-31.66zm0 697.51c63.26,0 112.46,-24.35 147.61,-73.04 35.17,-48.74 52.73,-116.25 52.73,-202.66 0,-87.36 -17.56,-155.14 -52.73,-203.36 -35.15,-48.2 -84.34,-72.29 -147.61,-72.29 -63.34,0 -112.54,24.09 -147.67,72.29 -35.17,48.22 -52.74,115.99 -52.74,203.36 0,86.41 17.57,153.92 52.74,202.66 35.13,48.69 84.33,73.04 147.67,73.04zm1330.24 125.05l-207.9 0 0 -123.5 -60.24 88.85c-23.12,17.05 -53.28,30.65 -90.43,40.68 -37.15,10.04 -76.32,15.07 -117.52,15.07 -56.22,0 -106.45,-10.07 -150.6,-30.17 -44.23,-20.04 -81.63,-48.19 -112.26,-84.37 -30.65,-36.14 -54.02,-79.08 -70.05,-128.77 -16.07,-49.72 -24.09,-104.21 -24.09,-163.47 0,-72.3 10.26,-135.81 30.86,-190.6 20.58,-54.74 48.47,-100.44 83.6,-137.04 35.13,-36.69 76.08,-64.07 122.78,-82.15 46.72,-18.06 95.66,-27.12 146.9,-27.12 33.13,0 67.8,4.05 103.95,12.06 36.14,8.05 64.27,19.08 84.37,33.15l52.74 82.85 0 -412.77 207.9 0 0 1107.29zm-415.83 -125.05c29.16,0 56.25,-4.75 81.38,-14.29 25.08,-9.52 46.93,-24.85 65.5,-45.95 18.6,-21.1 33.42,-48.45 44.45,-82.1 11.07,-33.65 16.6,-75.1 16.6,-124.3l0 -39.16c0,-45.2 -6.06,-83.37 -18.12,-114.51 -12.04,-31.12 -27.37,-56.48 -45.95,-76.08 -18.55,-19.56 -39.91,-33.65 -64,-42.16 -24.13,-8.54 -48.22,-12.79 -72.34,-12.79 -60.24,0 -110.17,22.83 -149.88,68.5 -39.69,45.71 -59.52,115.24 -59.52,208.69 0,82.34 18.1,148.64 54.25,198.85 36.16,50.23 85.38,75.31 147.63,75.31zm1059.13 7.54l-39.22 85.87c-28.12,19.06 -58.75,32.66 -91.9,40.71 -33.15,8 -68.78,12.06 -106.94,12.06 -34.14,0 -67.03,-5.04 -98.69,-15.07 -31.6,-10.04 -58.97,-24.87 -82.1,-44.45 -23.09,-19.58 -41.66,-43.93 -55.75,-73.04 -14.06,-29.18 -21.06,-62.8 -21.06,-100.96 0,-88.39 36.89,-156.43 110.71,-204.13 73.79,-47.7 184.03,-71.57 330.68,-71.57l51.19 0 0 -16.58c0,-12.06 0,-24.1 0,-36.14 0,-12.06 -0.98,-25.11 -2.99,-39.16 -3,-28.1 -14.06,-51.19 -33.16,-69.3 -19.06,-18.06 -49.23,-27.09 -90.38,-27.09 -42.18,0 -74.3,11.52 -96.41,34.62 -22.08,23.09 -34.65,56.76 -37.67,100.93l-201.89 1.54c2.01,-45.2 11.82,-85.37 29.39,-120.53 17.57,-35.17 41.69,-64.82 72.32,-88.91 30.62,-24.1 66.53,-42.42 107.71,-54.96 41.21,-12.6 85.9,-18.87 134.09,-18.87 56.27,0 103.95,5.78 143.37,17.31 39.4,11.59 72.04,27.89 97.91,48.99 25.6,21.1 44.97,45.95 57.49,74.57 12.85,28.63 20.64,60.53 23.63,95.64 3,37.2 4.52,78.35 4.52,123.55l0 259.09c0,30.16 1,60.32 2.99,90.39 2.02,30.16 6.07,67.8 12.08,113.01l-204.88 0 -15.04 -117.51zm-158.21 -7.54c42.16,0 78.59,-14.29 109.18,-42.9 30.63,-28.67 45.95,-71.08 45.95,-127.33l0 -64.78c-82.32,-5.98 -149.15,0.98 -200.34,21.1 -51.24,20.08 -76.86,56.74 -76.86,109.97 0,35.17 11.07,61.28 33.16,78.33 22.11,17.08 51.73,25.62 88.91,25.62zm802.96 -162.73c0,14.1 0,26.65 0,37.7 0,11.05 0.49,22.11 1.5,33.13 2.03,19.07 5.31,34.94 9.77,47.51 4.54,12.51 12.59,22.06 24.12,28.59 11.59,6.55 26.63,10.55 45.2,12.04 18.6,1.52 42.44,1.27 71.54,-0.75l0 135.61c-23.06,4 -45.9,6.77 -68.54,8.25 -22.58,1.55 -45.44,2.3 -68.51,2.3 -77.34,0 -132.09,-13.32 -164.24,-39.97 -32.13,-26.58 -50.7,-68.03 -55.7,-124.26 -2.04,-18.08 -3.04,-36.17 -3.04,-54.23 0,-18.08 0,-38.7 0,-61.79l0 -394.72 -117.5 0 0 -137.07 117.5 0 0 -197.37 207.9 0 0 197.37 165.74 0 0 137.07 -165.74 0 0 370.59zm1042.54 -310.33c1.95,20.1 3.51,41.47 4.49,64.04 1.01,22.6 1.5,50 1.5,82.1l0 451.97 -207.9 0 0 -423.33c0,-17.07 0,-34.91 0,-53.48 0,-18.55 -0.98,-37.93 -3,-58 -2.99,-42.18 -16.58,-76.35 -40.68,-102.46 -24.1,-26.11 -61.77,-39.13 -112.97,-39.13 -25.11,0 -48.72,5.78 -70.8,17.31 -22.11,11.58 -41.21,29.87 -57.28,54.98 -16.04,25.1 -28.85,56.99 -38.39,95.66 -9.54,38.65 -14.31,86.13 -14.31,142.4l0 366.05 -207.9 0 0 -1114.8 207.9 0 0 442.91 61.74 -94.91c29.15,-20.1 59.05,-34.4 89.68,-42.93 30.61,-8.57 64.99,-12.83 103.2,-12.83 85.38,0 152.15,19.84 200.34,59.53 48.2,39.65 76.32,94.65 84.4,164.93zm-7598.62 -1526.06c63.26,0 112.49,-24.35 147.65,-73.04 35.15,-48.73 52.71,-116.25 52.71,-202.66 0,-87.36 -17.56,-155.16 -52.71,-203.36 -35.17,-48.19 -84.39,-72.29 -147.65,-72.29 -63.29,0 -112.49,24.1 -147.65,72.29 -35.17,48.2 -52.72,115.99 -52.72,203.36 0,86.41 17.55,153.93 52.72,202.66 35.17,48.69 84.37,73.04 147.65,73.04z"/>
   <path class="fil1" d="M1266.5 2101.67l635.67 0 0 2547.54c0,145.58 -24.26,277.4 -72.78,395.48 -48.53,118.08 -114.84,219.97 -198.96,305.7 -84.11,85.72 -183.58,152.05 -298.42,198.95 -114.84,46.91 -238.58,70.37 -371.22,70.37 -326.74,0 -568.54,-89.76 -725.45,-269.31 -156.89,-179.54 -235.34,-422.97 -235.34,-730.29l592.01 0c0,135.87 25.08,243.42 75.21,322.7 50.14,79.24 136.67,118.88 259.61,118.88 126.17,0 214.33,-38.83 264.46,-116.47 50.14,-77.63 75.21,-184.39 75.21,-320.26l0 -2523.27z"/>
   <path class="fil0" d="M1946.92 1001.2c60.32,-79.53 92.21,-174.46 92.21,-274.54 0,-122.71 -48.12,-237.7 -135.51,-323.85 -87.36,-86.15 -203.15,-132.66 -325.86,-130.89 -118.93,1.68 -230.97,49.39 -315.46,134.36 -84.53,84.95 -131.67,197.25 -132.74,316.19 -0.93,101.94 31.13,198.57 92.72,279.48 99.98,131.29 155.06,292.11 155.06,452.84l0 175.87c0,78.02 63.46,141.49 141.48,141.49l131.6 0c78,0 141.48,-63.47 141.48,-141.49l0 -175.85c0,-162.52 53.22,-319.37 155.02,-453.61zm-650.9 -230.67c-2.25,-15.26 -3.36,-30.94 -3.21,-46.58 0.16,-16.1 -12.79,-29.27 -28.88,-29.42 -15.99,-0.14 -29.27,12.78 -29.43,28.89 -0.16,18.69 1.12,37.43 3.86,55.72 2.17,14.49 14.6,24.86 28.79,24.86 1.44,0 2.9,-0.12 4.36,-0.33 15.93,-2.37 26.89,-17.23 24.52,-33.14zm171.59 442.84c3.02,0 6.08,-0.47 9.11,-1.46 15.3,-5.03 23.6,-21.52 18.58,-36.8 -32.31,-98.27 -80.47,-189.81 -143.15,-272.1 -10.35,-13.6 -19.52,-28.09 -27.26,-43.08 -7.41,-14.28 -24.99,-19.88 -39.31,-12.49 -14.28,7.4 -19.9,24.99 -12.5,39.28 9.3,17.97 20.29,35.34 32.68,51.63 58.72,77.1 103.86,162.89 134.14,254.97 4.02,12.27 15.44,20.04 27.69,20.04zm423.07 -386.86c-14.78,-6.39 -31.94,0.46 -38.33,15.24 -9.23,21.44 -21.18,41.91 -35.51,60.81 -9.74,12.84 -7.21,31.11 5.6,40.86 5.28,3.98 11.46,5.91 17.59,5.91 8.82,0 17.53,-3.98 23.25,-11.53 17.17,-22.64 31.53,-47.2 42.62,-72.98 6.38,-14.78 -0.45,-31.92 -15.23,-38.3zm-306.35 -391.36c160.74,0 291.53,130.79 291.53,291.53 0,9.13 -0.41,18.37 -1.26,27.38 -1.46,16.03 10.35,30.21 26.39,31.69 0.89,0.09 1.8,0.11 2.69,0.11 14.9,0 27.6,-11.35 28.98,-26.47 0.99,-10.8 1.51,-21.8 1.51,-32.71 0,-192.9 -156.94,-349.84 -349.84,-349.84 -16.11,0 -29.16,13.07 -29.16,29.15 0,16.11 13.05,29.16 29.16,29.16zm0 -213.56c16.11,0 29.15,-13.05 29.15,-29.16l0 -163.27c0,-16.1 -13.04,-29.16 -29.15,-29.16 -16.11,0 -29.16,13.07 -29.16,29.16l0 163.27c0,16.11 13.05,29.16 29.16,29.16zm-294.96 57.61c5.41,9.36 15.22,14.58 25.28,14.58 4.93,0 9.95,-1.25 14.53,-3.9 13.96,-8.06 18.73,-25.88 10.68,-39.84l-81.58 -141.34c-8.07,-13.93 -25.89,-18.72 -39.82,-10.67 -13.96,8.04 -18.75,25.89 -10.7,39.82l81.6 141.35zm918 778.61l-141.33 -81.61c-13.96,-8.05 -31.78,-3.26 -39.82,10.69 -8.05,13.95 -3.28,31.78 10.67,39.82l141.34 81.61c4.59,2.64 9.62,3.91 14.54,3.91 10.08,0 19.89,-5.23 25.29,-14.6 8.05,-13.92 3.26,-31.77 -10.7,-39.82zm-1246.1 -652.1l141.35 81.61c4.57,2.65 9.59,3.91 14.54,3.91 10.08,0 19.86,-5.25 25.27,-14.59 8.05,-13.95 3.27,-31.79 -10.69,-39.84l-141.32 -81.58c-13.96,-8.07 -31.78,-3.29 -39.83,10.67 -8.07,13.95 -3.28,31.77 10.67,39.82zm1325.66 296.91l-163.28 0c-16.08,0 -29.15,13.04 -29.15,29.15 0,16.08 13.07,29.16 29.15,29.16l163.28 0c16.1,0 29.15,-13.08 29.15,-29.16 0,-16.11 -13.05,-29.15 -29.15,-29.15zm-1212.77 29.15c0,-16.11 -13.07,-29.15 -29.17,-29.15l-163.25 0c-16.12,0 -29.15,13.04 -29.15,29.15 0,16.08 13.03,29.16 29.15,29.16l163.25 0c16.12,0 29.17,-13.08 29.17,-29.16zm977.33 -240.54c4.95,0 9.96,-1.26 14.55,-3.91l141.33 -81.61c13.96,-8.05 18.75,-25.87 10.7,-39.82 -8.06,-13.96 -25.89,-18.73 -39.84,-10.67l-141.34 81.58c-13.93,8.05 -18.71,25.89 -10.67,39.84 5.38,9.34 15.21,14.59 25.26,14.59zm-948.86 484.98l-141.35 81.61c-13.95,8.05 -18.73,25.89 -10.67,39.82 5.39,9.36 15.18,14.6 25.25,14.6 4.96,0 9.98,-1.27 14.58,-3.91l141.32 -81.61c13.96,-8.04 18.73,-25.87 10.69,-39.82 -8.04,-13.95 -25.89,-18.73 -39.82,-10.69zm736.82 -686.33c4.6,2.65 9.61,3.9 14.56,3.9 10.09,0 19.88,-5.23 25.28,-14.58l81.59 -141.35c8.04,-13.92 3.28,-31.78 -10.67,-39.82 -13.96,-8.06 -31.79,-3.27 -39.84,10.67l-81.59 141.34c-8.05,13.96 -3.27,31.78 10.65,39.84zm-570.78 676.75c-53.67,-70.5 -81.61,-154.74 -80.79,-243.63 1.93,-213.56 177.2,-389.75 390.71,-392.77 107.11,-1.42 207.95,39.02 284.1,114.11 76.19,75.11 118.15,175.37 118.15,282.34 0,87.23 -27.8,169.98 -80.35,239.31 -107.26,141.44 -165.03,306.45 -167.4,477.86l-297.52 0c-2.44,-169.76 -61.47,-338.82 -166.9,-477.22zm166.98 644.29l0 -23.6 297.94 34.14 0 9.21c0,4.87 -0.49,9.62 -1.29,14.25l-296.65 -33.99zm0 -82.28l0 -26.48 297.94 0 0 60.6 -297.94 -34.12zm83.17 185.21c-31.32,0 -58.63,-17.4 -72.81,-43.04l250.98 28.75c-13.28,9.01 -29.32,14.29 -46.56,14.29l-131.61 0z"/>
  </g>
 </g>
</svg>
